<?xml version="1.0" encoding="UTF-8"?><svg id="Layer_1" xmlns="http://www.w3.org/2000/svg" viewBox="0 0 32 588"><defs><style>.cls-1{fill:#fff;}</style></defs><path class="cls-1" d="M6,434h2s0-2,0-2h2s2,0,2,0v-2s2,0,2,0v-2s2,0,2,0h0s2,0,2,0v-2s-2,0-2,0h2s2,0,2,0h2s0-2,0-2h2s0,0,0,0h2s0-2,0-2h2s2,0,2,0v-2s2,0,2,0v-2s0-2,0-2h-2s-2,0-2,0v2s-2,0-2,0h-2s0,2,0,2h-2s-2,0-2,0v2s-2,0-2,0h-2s0,2,0,2h-2s-2,0-2,0v2s-2,0-2,0h-2s0,2,0,2h-2s-2,0-2,0v2s-2,0-2,0H0s0,2,0,2v2s0,2,0,2H2s2,0,2,0v-2s2,0,2,0Zm12-10h2s-2,0-2,0h-2s2,0,2,0Z"/><path class="cls-1" d="M6,442h2s0-2,0-2h2s2,0,2,0v-2s2,0,2,0h2s0-2,0-2h2s2,0,2,0v-2s2,0,2,0h2s0-2,0-2h2s2,0,2,0v-2s2,0,2,0v-2s2,0,2,0v-2s0-2,0-2h-2s-2,0-2,0v2s-2,0-2,0h-2s0,2,0,2h-2s-2,0-2,0v2s-2,0-2,0h-2s0,2,0,2h-2s-2,0-2,0v2s-2,0-2,0h-2s0,2,0,2h-2s-2,0-2,0v2s-2,0-2,0H0s0,2,0,2v2s0,2,0,2H2s2,0,2,0v-2s2,0,2,0Zm10-8v2s-2,0-2,0h2s0-2,0-2h2s-2,0-2,0Zm0,0v-2s2,0,2,0h-2s0,2,0,2h-2s2,0,2,0Z"/><path class="cls-1" d="M6,450h2s0-2,0-2h2s2,0,2,0v-2s2,0,2,0h2s0-2,0-2h2s2,0,2,0v-2s2,0,2,0h2s0-2,0-2h2s2,0,2,0v-2s2,0,2,0h2s0-2,0-2v-2s0-2,0-2h-2s-2,0-2,0v2s-2,0-2,0h-2s0,2,0,2h-2s-2,0-2,0v2s-2,0-2,0h-2s0,2,0,2h-2s-2,0-2,0v2s-2,0-2,0h-2s0,2,0,2h-2s-2,0-2,0v2s-2,0-2,0H0s0,2,0,2v2s0,2,0,2H2s2,0,2,0v-2s2,0,2,0Zm10-8v2s-2,0-2,0h2s0-2,0-2h2s-2,0-2,0Zm0,0v-2s2,0,2,0h-2s0,2,0,2h-2s2,0,2,0Z"/><path class="cls-1" d="M6,458h2s0-2,0-2h2s2,0,2,0v-2s2,0,2,0h2s0-2,0-2h2s2,0,2,0v-2s2,0,2,0h2s0-2,0-2h2s2,0,2,0v-2s2,0,2,0h2s0-2,0-2v-2s0-2,0-2h-2s-2,0-2,0v2s-2,0-2,0h-2s0,2,0,2h-2s-2,0-2,0v2s-2,0-2,0h-2s0,2,0,2h-2s-2,0-2,0v2s-2,0-2,0h-2s0,2,0,2h-2s-2,0-2,0v2s-2,0-2,0H0s0,2,0,2v2s0,2,0,2H2s2,0,2,0v-2s2,0,2,0Zm10-8v2s-2,0-2,0h2s0-2,0-2h2s-2,0-2,0Zm0,0v-2s2,0,2,0h-2s0,2,0,2h-2s2,0,2,0Z"/><polygon class="cls-1" points="2 402 4 402 6 402 6 400 8 400 8 400 10 400 10 398 12 398 12 396 14 396 16 396 16 394 18 394 20 394 20 392 18 392 20 392 22 392 24 392 24 390 26 390 28 390 28 388 30 388 32 388 32 386 32 384 30 384 28 384 28 386 26 386 24 386 24 388 22 388 20 388 20 390 22 390 20 390 18 390 16 390 16 392 14 392 12 392 12 394 10 394 8 394 8 396 6 396 4 396 4 398 2 398 0 398 0 400 0 402 0 404 2 404 2 402"/><path class="cls-1" d="M2,410H4s2,0,2,0v-2s2,0,2,0h0s2,0,2,0v-2s2,0,2,0h2s0-2,0-2h2s0,0,0,0h2s0-2,0-2h-2s2,0,2,0h2s2,0,2,0v-2s2,0,2,0h0s2,0,2,0v-2s2,0,2,0v-2s2,0,2,0h2s0-2,0-2v-2s-2,0-2,0h-2s0,2,0,2h-2s-2,0-2,0v2s-2,0-2,0h-2s0,2,0,2h-2s-2,0-2,0v2s-2,0-2,0h-2s0,2,0,2h-2s-2,0-2,0v2s-2,0-2,0H4s0,2,0,2H2s-2,0-2,0v2s0,2,0,2v2s2,0,2,0v-2Zm16-10h2s-2,0-2,0h-2s2,0,2,0Z"/><path class="cls-1" d="M2,418H4s2,0,2,0v-2s2,0,2,0h0s2,0,2,0v-2s2,0,2,0h2s0-2,0-2h2s0,0,0,0h2s0-2,0-2h-2s2,0,2,0h2s2,0,2,0v-2s2,0,2,0h0s2,0,2,0v-2s2,0,2,0h2s0-2,0-2h2s0-2,0-2v-2s-2,0-2,0h-2s0,2,0,2h-2s-2,0-2,0v2s-2,0-2,0h-2s0,2,0,2h-2s-2,0-2,0v2s-2,0-2,0h-2s0,2,0,2h-2s-2,0-2,0v2s-2,0-2,0H4s0,2,0,2H2s-2,0-2,0v2s0,2,0,2v2s2,0,2,0v-2Zm16-10h2s-2,0-2,0h-2s2,0,2,0Z"/><path class="cls-1" d="M2,426H4s2,0,2,0v-2s2,0,2,0h0s2,0,2,0v-2s2,0,2,0h2s0-2,0-2h2s0,0,0,0h2s0-2,0-2h-2s2,0,2,0h2s2,0,2,0v-2s2,0,2,0h0s2,0,2,0v-2s2,0,2,0h2s0-2,0-2h2s0-2,0-2v-2s-2,0-2,0h-2s0,2,0,2h-2s-2,0-2,0v2s-2,0-2,0h-2s0,2,0,2h-2s-2,0-2,0v2s-2,0-2,0h-2s0,2,0,2h-2s-2,0-2,0v2s-2,0-2,0H4s0,2,0,2H2s-2,0-2,0v2s0,2,0,2v2s2,0,2,0v-2Zm16-10h2s-2,0-2,0h-2s2,0,2,0Z"/><polygon class="cls-1" points="4 378 4 376 6 376 8 376 8 374 10 374 12 374 12 372 14 372 16 372 16 370 18 370 20 370 20 368 18 368 20 368 22 368 24 368 24 366 26 366 28 366 28 364 26 364 24 364 24 366 22 366 20 366 20 364 18 364 16 364 16 366 16 368 14 368 12 368 12 370 10 370 8 370 8 372 6 372 4 372 4 374 2 374 0 374 0 376 0 378 2 378 4 378"/><polygon class="cls-1" points="4 386 4 384 6 384 8 384 8 382 10 382 12 382 12 380 14 380 16 380 16 378 18 378 20 378 20 376 18 376 20 376 22 376 24 376 24 374 26 374 28 374 28 372 30 372 32 372 32 370 32 368 30 368 28 368 28 370 26 370 24 370 24 372 22 372 20 372 20 374 22 374 20 374 18 374 16 374 16 376 14 376 12 376 12 378 10 378 8 378 8 380 6 380 4 380 4 382 2 382 0 382 0 384 0 386 2 386 4 386"/><polygon class="cls-1" points="4 394 4 392 6 392 8 392 8 390 10 390 12 390 12 388 14 388 16 388 16 386 18 386 20 386 20 384 18 384 20 384 22 384 24 384 24 382 26 382 28 382 28 380 30 380 32 380 32 378 32 376 30 376 28 376 28 378 26 378 24 378 24 380 22 380 20 380 20 382 22 382 20 382 18 382 16 382 16 384 14 384 12 384 12 386 10 386 8 386 8 388 6 388 4 388 4 390 2 390 0 390 0 392 0 394 2 394 4 394"/><polygon class="cls-1" points="24 348 24 350 22 350 20 350 20 352 22 352 24 352 24 350 26 350 28 350 28 348 26 348 24 348"/><polygon class="cls-1" points="30 348 32 348 32 346 30 346 28 346 28 348 30 348"/><polygon class="cls-1" points="16 348 16 346 18 346 20 346 20 344 18 344 16 344 16 346 14 346 12 346 12 348 14 348 16 348"/><polygon class="cls-1" points="2 348 0 348 0 350 2 350 4 350 4 348 2 348"/><polygon class="cls-1" points="8 348 8 346 10 346 12 346 12 344 10 344 8 344 8 346 6 346 4 346 4 348 6 348 8 348"/><polygon class="cls-1" points="24 352 24 354 22 354 20 354 20 356 22 356 24 356 24 354 26 354 28 354 28 352 26 352 24 352"/><polygon class="cls-1" points="30 352 32 352 32 350 30 350 28 350 28 352 30 352"/><polygon class="cls-1" points="24 356 24 358 22 358 20 358 20 360 22 360 24 360 24 358 26 358 28 358 28 356 26 356 24 356"/><polygon class="cls-1" points="30 356 32 356 32 354 30 354 28 354 28 356 30 356"/><polygon class="cls-1" points="16 352 16 350 18 350 20 350 20 348 18 348 16 348 16 350 14 350 12 350 12 352 14 352 16 352"/><polygon class="cls-1" points="16 356 16 354 18 354 20 354 20 352 18 352 16 352 16 354 14 354 12 354 12 356 14 356 16 356"/><polygon class="cls-1" points="2 352 0 352 0 354 2 354 4 354 4 352 2 352"/><polygon class="cls-1" points="8 352 8 350 10 350 12 350 12 348 10 348 8 348 8 350 6 350 4 350 4 352 6 352 8 352"/><polygon class="cls-1" points="2 356 0 356 0 358 2 358 4 358 4 356 2 356"/><polygon class="cls-1" points="8 356 8 354 10 354 12 354 12 352 10 352 8 352 8 354 6 354 4 354 4 356 6 356 8 356"/><polygon class="cls-1" points="30 360 32 360 32 358 30 358 28 358 28 360 30 360"/><polygon class="cls-1" points="30 364 32 364 32 362 30 362 28 362 28 364 30 364"/><polygon class="cls-1" points="18 360 16 360 16 362 14 362 12 362 12 364 14 364 16 364 16 362 18 362 20 362 20 360 18 360"/><polygon class="cls-1" points="24 364 24 362 26 362 28 362 28 360 26 360 24 360 24 362 22 362 20 362 20 364 22 364 24 364"/><polygon class="cls-1" points="16 360 16 358 18 358 20 358 20 356 18 356 16 356 16 358 14 358 12 358 12 360 14 360 16 360"/><polygon class="cls-1" points="8 364 8 366 6 366 4 366 4 364 2 364 0 364 0 366 0 368 0 370 2 370 4 370 4 368 6 368 8 368 8 366 10 366 12 366 12 364 10 364 8 364"/><polygon class="cls-1" points="2 360 0 360 0 362 2 362 4 362 4 360 2 360"/><polygon class="cls-1" points="8 360 8 358 10 358 12 358 12 356 10 356 8 356 8 358 6 358 4 358 4 360 6 360 8 360"/><polygon class="cls-1" points="8 364 8 362 10 362 12 362 12 360 10 360 8 360 8 362 6 362 4 362 4 364 6 364 8 364"/><polygon class="cls-1" points="32 316 32 314 32 312 32 310 32 308 32 306 32 304 32 302 32 300 32 298 32 296 32 294 32 292 32 290 32 288 32 286 32 284 32 282 30 282 30 284 30 286 30 288 30 290 30 292 30 294 30 296 30 298 30 300 30 302 30 304 30 306 30 308 30 310 30 312 30 314 28 314 28 316 30 316 32 316"/><polygon class="cls-1" points="24 320 24 322 22 322 20 322 20 324 22 324 24 324 24 322 26 322 28 322 28 320 26 320 24 320"/><polygon class="cls-1" points="30 320 32 320 32 318 30 318 28 318 28 320 30 320"/><polygon class="cls-1" points="24 316 24 314 24 312 22 312 22 314 20 314 20 316 22 316 24 316"/><polygon class="cls-1" points="22 320 24 320 24 318 26 318 28 318 28 316 26 316 24 316 24 318 22 318 20 318 20 320 22 320"/><polygon class="cls-1" points="16 316 16 314 16 312 16 310 16 308 16 306 16 304 16 302 16 300 16 298 16 296 16 294 16 292 16 290 16 288 16 286 16 284 16 282 14 282 14 284 14 286 14 288 14 290 14 292 14 294 14 296 14 298 14 300 14 302 14 304 14 306 14 308 14 310 14 312 14 314 12 314 12 316 14 316 16 316"/><polygon class="cls-1" points="14 320 16 320 16 318 18 318 20 318 20 316 18 316 16 316 16 318 14 318 12 318 12 320 14 320"/><polygon class="cls-1" points="2 316 0 316 0 318 2 318 4 318 4 316 2 316"/><polygon class="cls-1" points="8 316 8 314 8 312 8 310 8 308 8 306 8 304 8 302 8 300 8 298 8 296 8 294 8 292 8 290 8 288 8 286 8 284 8 282 6 282 6 284 6 286 6 288 6 290 6 292 6 294 6 296 6 298 6 300 6 302 6 304 6 306 6 308 6 310 6 312 6 314 4 314 4 316 6 316 8 316"/><polygon class="cls-1" points="2 320 0 320 0 322 2 322 4 322 4 320 2 320"/><polygon class="cls-1" points="8 320 8 318 10 318 12 318 12 316 10 316 8 316 8 318 6 318 4 318 4 320 6 320 8 320"/><polygon class="cls-1" points="24 324 24 326 22 326 20 326 20 328 22 328 24 328 24 326 26 326 28 326 28 324 26 324 24 324"/><polygon class="cls-1" points="30 324 32 324 32 322 30 322 28 322 28 324 30 324"/><polygon class="cls-1" points="24 328 24 330 22 330 20 330 20 332 22 332 24 332 24 330 26 330 28 330 28 328 26 328 24 328"/><polygon class="cls-1" points="30 328 32 328 32 326 30 326 28 326 28 328 30 328"/><polygon class="cls-1" points="16 324 16 322 18 322 20 322 20 320 18 320 16 320 16 322 14 322 12 322 12 324 14 324 16 324"/><polygon class="cls-1" points="16 328 16 326 18 326 20 326 20 324 18 324 16 324 16 326 14 326 12 326 12 328 14 328 16 328"/><polygon class="cls-1" points="2 324 0 324 0 326 2 326 4 326 4 324 2 324"/><polygon class="cls-1" points="8 324 8 322 10 322 12 322 12 320 10 320 8 320 8 322 6 322 4 322 4 324 6 324 8 324"/><polygon class="cls-1" points="2 328 0 328 0 330 2 330 4 330 4 328 2 328"/><polygon class="cls-1" points="8 328 8 326 10 326 12 326 12 324 10 324 8 324 8 326 6 326 4 326 4 328 6 328 8 328"/><polygon class="cls-1" points="24 332 24 334 22 334 20 334 20 336 22 336 24 336 24 334 26 334 28 334 28 332 26 332 24 332"/><polygon class="cls-1" points="30 332 32 332 32 330 30 330 28 330 28 332 30 332"/><polygon class="cls-1" points="24 336 24 338 22 338 20 338 20 340 22 340 24 340 24 338 26 338 28 338 28 336 26 336 24 336"/><polygon class="cls-1" points="30 336 32 336 32 334 30 334 28 334 28 336 30 336"/><polygon class="cls-1" points="16 332 16 330 18 330 20 330 20 328 18 328 16 328 16 330 14 330 12 330 12 332 14 332 16 332"/><polygon class="cls-1" points="16 336 16 334 18 334 20 334 20 332 18 332 16 332 16 334 14 334 12 334 12 336 14 336 16 336"/><polygon class="cls-1" points="2 332 0 332 0 334 2 334 4 334 4 332 2 332"/><polygon class="cls-1" points="8 332 8 330 10 330 12 330 12 328 10 328 8 328 8 330 6 330 4 330 4 332 6 332 8 332"/><polygon class="cls-1" points="2 336 0 336 0 338 2 338 4 338 4 336 2 336"/><polygon class="cls-1" points="8 336 8 334 10 334 12 334 12 332 10 332 8 332 8 334 6 334 4 334 4 336 6 336 8 336"/><polygon class="cls-1" points="24 340 24 342 22 342 20 342 20 344 22 344 24 344 24 342 26 342 28 342 28 340 26 340 24 340"/><polygon class="cls-1" points="30 340 32 340 32 338 30 338 28 338 28 340 30 340"/><polygon class="cls-1" points="24 344 24 346 22 346 20 346 20 348 22 348 24 348 24 346 26 346 28 346 28 344 26 344 24 344"/><polygon class="cls-1" points="30 344 32 344 32 342 30 342 28 342 28 344 30 344"/><polygon class="cls-1" points="16 340 16 338 18 338 20 338 20 336 18 336 16 336 16 338 14 338 12 338 12 340 14 340 16 340"/><polygon class="cls-1" points="16 344 16 342 18 342 20 342 20 340 18 340 16 340 16 342 14 342 12 342 12 344 14 344 16 344"/><polygon class="cls-1" points="2 340 0 340 0 342 2 342 4 342 4 340 2 340"/><polygon class="cls-1" points="8 340 8 338 10 338 12 338 12 336 10 336 8 336 8 338 6 338 4 338 4 340 6 340 8 340"/><polygon class="cls-1" points="2 344 0 344 0 346 2 346 4 346 4 344 2 344"/><polygon class="cls-1" points="8 344 8 342 10 342 12 342 12 340 10 340 8 340 8 342 6 342 4 342 4 344 6 344 8 344"/><rect class="cls-1" x="22" y="284" width="2" height="2"/><rect class="cls-1" x="22" y="282" width="2" height="2"/><rect class="cls-1" x="22" y="288" width="2" height="2"/><rect class="cls-1" x="22" y="286" width="2" height="2"/><rect class="cls-1" x="22" y="292" width="2" height="2"/><rect class="cls-1" x="22" y="290" width="2" height="2"/><rect class="cls-1" x="22" y="296" width="2" height="2"/><rect class="cls-1" x="22" y="294" width="2" height="2"/><rect class="cls-1" x="22" y="300" width="2" height="2"/><rect class="cls-1" x="22" y="298" width="2" height="2"/><rect class="cls-1" x="22" y="304" width="2" height="2"/><rect class="cls-1" x="22" y="302" width="2" height="2"/><polygon class="cls-1" points="28 310 28 308 28 306 28 304 28 302 28 300 28 298 28 296 28 294 28 292 28 290 28 288 28 286 28 284 28 282 26 282 26 284 26 286 26 288 26 290 26 292 26 294 26 296 26 298 26 300 26 302 26 304 26 306 26 308 26 310 26 312 26 314 28 314 28 312 28 310"/><rect class="cls-1" x="22" y="308" width="2" height="2"/><rect class="cls-1" x="22" y="306" width="2" height="2"/><polygon class="cls-1" points="20 310 20 308 20 306 20 304 20 302 20 300 20 298 20 296 20 294 20 292 20 290 20 288 20 286 20 284 20 282 18 282 18 284 18 286 18 288 18 290 18 292 18 294 18 296 18 298 18 300 18 302 18 304 18 306 18 308 18 310 18 312 18 314 20 314 20 312 20 310"/><rect class="cls-1" x="22" y="310" width="2" height="2"/><polygon class="cls-1" points="12 310 12 308 12 306 12 304 12 302 12 300 12 298 12 296 12 294 12 292 12 290 12 288 12 286 12 284 12 282 10 282 10 284 10 286 10 288 10 290 10 292 10 294 10 296 10 298 10 300 10 302 10 304 10 306 10 308 10 310 10 312 10 314 12 314 12 312 12 310"/><polygon class="cls-1" points="4 310 4 308 4 306 4 304 4 302 4 300 4 298 4 296 4 294 4 292 4 290 4 288 4 286 4 284 4 282 4 282 4 280 2 280 2 282 2 282 2 284 2 286 2 288 2 290 2 292 2 294 2 296 2 298 2 300 2 302 2 304 2 306 2 308 2 310 2 312 2 314 4 314 4 312 4 310"/><rect class="cls-1" x="30" y="98" width="2" height="2"/><rect class="cls-1" x="22" y="94" width="2" height="2"/><rect class="cls-1" x="18" y="98" width="2" height="2"/><rect class="cls-1" x="10" y="94" width="2" height="2"/><rect class="cls-1" x="6" y="98" width="2" height="2"/><rect class="cls-1" x="26" y="102" width="2" height="2"/><rect class="cls-1" x="22" y="106" width="2" height="2"/><rect class="cls-1" x="14" y="102" width="2" height="2"/><rect class="cls-1" x="10" y="106" width="2" height="2"/><rect class="cls-1" x="2" y="102" width="2" height="2"/><rect class="cls-1" x="30" y="110" width="2" height="2"/><rect class="cls-1" x="26" y="114" width="2" height="2"/><rect class="cls-1" x="18" y="110" width="2" height="2"/><rect class="cls-1" x="14" y="114" width="2" height="2"/><rect class="cls-1" x="6" y="110" width="2" height="2"/><rect class="cls-1" x="2" y="114" width="2" height="2"/><rect class="cls-1" x="30" y="122" width="2" height="2"/><rect class="cls-1" x="22" y="118" width="2" height="2"/><rect class="cls-1" x="18" y="122" width="2" height="2"/><rect class="cls-1" x="10" y="118" width="2" height="2"/><rect class="cls-1" x="6" y="122" width="2" height="2"/><rect class="cls-1" x="10" y="64" width="2" height="2"/><rect class="cls-1" x="26" y="64" width="2" height="2"/><rect class="cls-1" x="2" y="72" width="2" height="2"/><rect class="cls-1" x="18" y="72" width="2" height="2"/><rect class="cls-1" x="10" y="80" width="2" height="2"/><rect class="cls-1" x="26" y="80" width="2" height="2"/><rect class="cls-1" x="2" y="88" width="2" height="2"/><rect class="cls-1" x="18" y="88" width="2" height="2"/><rect class="cls-1" x="10" y="32" width="2" height="2"/><rect class="cls-1" x="26" y="32" width="2" height="2"/><rect class="cls-1" x="10" y="48" width="2" height="2"/><rect class="cls-1" x="26" y="48" width="2" height="2"/><rect class="cls-1" x="10" y="0" width="2" height="2"/><rect class="cls-1" x="26" y="0" width="2" height="2"/><rect class="cls-1" x="10" y="16" width="2" height="2"/><rect class="cls-1" x="26" y="16" width="2" height="2"/><rect class="cls-1" x="2" y="126" width="2" height="2"/><rect class="cls-1" x="10" y="126" width="2" height="2"/><rect class="cls-1" x="18" y="126" width="2" height="2"/><rect class="cls-1" x="26" y="126" width="2" height="2"/><rect class="cls-1" x="6" y="130" width="2" height="2"/><rect class="cls-1" x="14" y="130" width="2" height="2"/><rect class="cls-1" x="22" y="130" width="2" height="2"/><rect class="cls-1" x="30" y="130" width="2" height="2"/><rect class="cls-1" x="2" y="134" width="2" height="2"/><rect class="cls-1" x="10" y="134" width="2" height="2"/><rect class="cls-1" x="18" y="134" width="2" height="2"/><rect class="cls-1" x="26" y="134" width="2" height="2"/><rect class="cls-1" x="6" y="138" width="2" height="2"/><rect class="cls-1" x="14" y="138" width="2" height="2"/><rect class="cls-1" x="22" y="138" width="2" height="2"/><rect class="cls-1" x="30" y="138" width="2" height="2"/><rect class="cls-1" x="2" y="142" width="2" height="2"/><rect class="cls-1" x="10" y="142" width="2" height="2"/><rect class="cls-1" x="18" y="142" width="2" height="2"/><rect class="cls-1" x="26" y="142" width="2" height="2"/><rect class="cls-1" x="6" y="146" width="2" height="2"/><rect class="cls-1" x="14" y="146" width="2" height="2"/><rect class="cls-1" x="22" y="146" width="2" height="2"/><rect class="cls-1" x="30" y="146" width="2" height="2"/><rect class="cls-1" x="2" y="150" width="2" height="2"/><rect class="cls-1" x="10" y="150" width="2" height="2"/><rect class="cls-1" x="18" y="150" width="2" height="2"/><rect class="cls-1" x="26" y="150" width="2" height="2"/><rect class="cls-1" x="6" y="154" width="2" height="2"/><rect class="cls-1" x="14" y="154" width="2" height="2"/><rect class="cls-1" x="22" y="154" width="2" height="2"/><rect class="cls-1" x="30" y="154" width="2" height="2"/><rect class="cls-1" x="6" y="158" width="2" height="2"/><rect class="cls-1" x="2" y="158" width="2" height="2"/><rect class="cls-1" x="10" y="158" width="2" height="2"/><rect class="cls-1" x="18" y="158" width="2" height="2"/><rect class="cls-1" x="22" y="158" width="2" height="2"/><rect class="cls-1" x="26" y="158" width="2" height="2"/><rect class="cls-1" x="6" y="162" width="2" height="2"/><rect class="cls-1" x="14" y="162" width="2" height="2"/><rect class="cls-1" x="22" y="162" width="2" height="2"/><rect class="cls-1" x="30" y="162" width="2" height="2"/><rect class="cls-1" x="2" y="166" width="2" height="2"/><rect class="cls-1" x="10" y="166" width="2" height="2"/><rect class="cls-1" x="18" y="166" width="2" height="2"/><rect class="cls-1" x="14" y="166" width="2" height="2"/><rect class="cls-1" x="30" y="166" width="2" height="2"/><rect class="cls-1" x="26" y="166" width="2" height="2"/><rect class="cls-1" x="6" y="170" width="2" height="2"/><rect class="cls-1" x="14" y="170" width="2" height="2"/><rect class="cls-1" x="22" y="170" width="2" height="2"/><rect class="cls-1" x="30" y="170" width="2" height="2"/><rect class="cls-1" x="6" y="174" width="2" height="2"/><rect class="cls-1" x="2" y="174" width="2" height="2"/><rect class="cls-1" x="10" y="174" width="2" height="2"/><rect class="cls-1" x="18" y="174" width="2" height="2"/><rect class="cls-1" x="22" y="174" width="2" height="2"/><rect class="cls-1" x="26" y="174" width="2" height="2"/><rect class="cls-1" x="6" y="178" width="2" height="2"/><rect class="cls-1" x="14" y="178" width="2" height="2"/><rect class="cls-1" x="22" y="178" width="2" height="2"/><rect class="cls-1" x="30" y="178" width="2" height="2"/><rect class="cls-1" x="2" y="182" width="2" height="2"/><rect class="cls-1" x="10" y="182" width="2" height="2"/><rect class="cls-1" x="18" y="182" width="2" height="2"/><rect class="cls-1" x="14" y="182" width="2" height="2"/><rect class="cls-1" x="30" y="182" width="2" height="2"/><rect class="cls-1" x="26" y="182" width="2" height="2"/><rect class="cls-1" x="6" y="186" width="2" height="2"/><rect class="cls-1" x="2" y="186" width="2" height="2"/><rect class="cls-1" x="10" y="186" width="2" height="2"/><rect class="cls-1" x="18" y="186" width="2" height="2"/><rect class="cls-1" x="14" y="186" width="2" height="2"/><rect class="cls-1" x="22" y="186" width="2" height="2"/><rect class="cls-1" x="30" y="186" width="2" height="2"/><rect class="cls-1" x="26" y="186" width="2" height="2"/><rect class="cls-1" x="6" y="190" width="2" height="2"/><rect class="cls-1" x="2" y="190" width="2" height="2"/><rect class="cls-1" x="10" y="190" width="2" height="2"/><rect class="cls-1" x="18" y="190" width="2" height="2"/><rect class="cls-1" x="14" y="190" width="2" height="2"/><rect class="cls-1" x="22" y="190" width="2" height="2"/><rect class="cls-1" x="30" y="190" width="2" height="2"/><rect class="cls-1" x="26" y="190" width="2" height="2"/><rect class="cls-1" x="6" y="194" width="2" height="2"/><rect class="cls-1" x="2" y="194" width="2" height="2"/><rect class="cls-1" x="10" y="194" width="2" height="2"/><rect class="cls-1" x="18" y="194" width="2" height="2"/><rect class="cls-1" x="14" y="194" width="2" height="2"/><rect class="cls-1" x="22" y="194" width="2" height="2"/><rect class="cls-1" x="30" y="194" width="2" height="2"/><rect class="cls-1" x="26" y="194" width="2" height="2"/><rect class="cls-1" x="6" y="198" width="2" height="2"/><rect class="cls-1" x="2" y="198" width="2" height="2"/><rect class="cls-1" x="10" y="198" width="2" height="2"/><rect class="cls-1" x="18" y="198" width="2" height="2"/><rect class="cls-1" x="14" y="198" width="2" height="2"/><rect class="cls-1" x="22" y="198" width="2" height="2"/><rect class="cls-1" x="30" y="198" width="2" height="2"/><rect class="cls-1" x="26" y="198" width="2" height="2"/><rect class="cls-1" x="6" y="202" width="2" height="2"/><rect class="cls-1" x="2" y="202" width="2" height="2"/><rect class="cls-1" x="10" y="202" width="2" height="2"/><rect class="cls-1" x="18" y="202" width="2" height="2"/><rect class="cls-1" x="14" y="202" width="2" height="2"/><rect class="cls-1" x="22" y="202" width="2" height="2"/><rect class="cls-1" x="30" y="202" width="2" height="2"/><rect class="cls-1" x="26" y="202" width="2" height="2"/><rect class="cls-1" x="6" y="206" width="2" height="2"/><rect class="cls-1" x="2" y="206" width="2" height="2"/><rect class="cls-1" x="10" y="206" width="2" height="2"/><rect class="cls-1" x="18" y="206" width="2" height="2"/><rect class="cls-1" x="14" y="206" width="2" height="2"/><rect class="cls-1" x="22" y="206" width="2" height="2"/><rect class="cls-1" x="30" y="206" width="2" height="2"/><rect class="cls-1" x="26" y="206" width="2" height="2"/><rect class="cls-1" x="6" y="210" width="2" height="2"/><rect class="cls-1" x="2" y="210" width="2" height="2"/><rect class="cls-1" x="10" y="210" width="2" height="2"/><rect class="cls-1" x="18" y="210" width="2" height="2"/><rect class="cls-1" x="14" y="210" width="2" height="2"/><rect class="cls-1" x="22" y="210" width="2" height="2"/><rect class="cls-1" x="30" y="210" width="2" height="2"/><rect class="cls-1" x="26" y="210" width="2" height="2"/><rect class="cls-1" x="6" y="214" width="2" height="2"/><rect class="cls-1" x="2" y="214" width="2" height="2"/><rect class="cls-1" x="10" y="214" width="2" height="2"/><rect class="cls-1" x="18" y="214" width="2" height="2"/><rect class="cls-1" x="14" y="214" width="2" height="2"/><rect class="cls-1" x="22" y="214" width="2" height="2"/><rect class="cls-1" x="30" y="214" width="2" height="2"/><rect class="cls-1" x="26" y="214" width="2" height="2"/><rect class="cls-1" x="4" y="220" width="2" height="2"/><rect class="cls-1" x="12" y="220" width="2" height="2"/><rect class="cls-1" x="20" y="220" width="2" height="2"/><rect class="cls-1" x="28" y="220" width="2" height="2"/><rect class="cls-1" x="6" y="218" width="2" height="2"/><rect class="cls-1" x="2" y="218" width="2" height="2"/><rect class="cls-1" x="10" y="218" width="2" height="2"/><rect class="cls-1" x="18" y="218" width="2" height="2"/><rect class="cls-1" x="14" y="218" width="2" height="2"/><rect class="cls-1" x="22" y="218" width="2" height="2"/><rect class="cls-1" x="30" y="218" width="2" height="2"/><rect class="cls-1" x="26" y="218" width="2" height="2"/><rect class="cls-1" x="6" y="222" width="2" height="2"/><rect class="cls-1" x="2" y="222" width="2" height="2"/><rect class="cls-1" x="10" y="222" width="2" height="2"/><rect class="cls-1" x="18" y="222" width="2" height="2"/><rect class="cls-1" x="14" y="222" width="2" height="2"/><rect class="cls-1" x="22" y="222" width="2" height="2"/><rect class="cls-1" x="30" y="222" width="2" height="2"/><rect class="cls-1" x="26" y="222" width="2" height="2"/><rect class="cls-1" x="4" y="228" width="2" height="2"/><rect class="cls-1" x="12" y="228" width="2" height="2"/><rect class="cls-1" x="20" y="228" width="2" height="2"/><rect class="cls-1" x="28" y="228" width="2" height="2"/><rect class="cls-1" x="6" y="226" width="2" height="2"/><rect class="cls-1" x="2" y="226" width="2" height="2"/><rect class="cls-1" x="10" y="226" width="2" height="2"/><rect class="cls-1" x="18" y="226" width="2" height="2"/><rect class="cls-1" x="14" y="226" width="2" height="2"/><rect class="cls-1" x="22" y="226" width="2" height="2"/><rect class="cls-1" x="30" y="226" width="2" height="2"/><rect class="cls-1" x="26" y="226" width="2" height="2"/><rect class="cls-1" x="6" y="230" width="2" height="2"/><rect class="cls-1" x="2" y="230" width="2" height="2"/><rect class="cls-1" x="10" y="230" width="2" height="2"/><rect class="cls-1" x="18" y="230" width="2" height="2"/><rect class="cls-1" x="14" y="230" width="2" height="2"/><rect class="cls-1" x="22" y="230" width="2" height="2"/><rect class="cls-1" x="30" y="230" width="2" height="2"/><rect class="cls-1" x="26" y="230" width="2" height="2"/><rect class="cls-1" x="6" y="236" width="2" height="2"/><rect class="cls-1" x="14" y="236" width="2" height="2"/><rect class="cls-1" x="22" y="236" width="2" height="2"/><rect class="cls-1" x="30" y="236" width="2" height="2"/><rect class="cls-1" x="4" y="234" width="2" height="2"/><rect class="cls-1" x="0" y="234" width="2" height="2"/><rect class="cls-1" x="12" y="234" width="2" height="2"/><rect class="cls-1" x="8" y="234" width="2" height="2"/><rect class="cls-1" x="16" y="234" width="2" height="2"/><rect class="cls-1" x="24" y="234" width="2" height="2"/><rect class="cls-1" x="20" y="234" width="2" height="2"/><rect class="cls-1" x="28" y="234" width="2" height="2"/><polygon class="cls-1" points="2 240 2 242 0 242 0 244 2 244 2 242 4 242 4 240 2 240"/><rect class="cls-1" x="10" y="240" width="2" height="2"/><rect class="cls-1" x="18" y="240" width="2" height="2"/><rect class="cls-1" x="26" y="240" width="2" height="2"/><rect class="cls-1" x="4" y="238" width="2" height="2"/><rect class="cls-1" x="0" y="238" width="2" height="2"/><rect class="cls-1" x="12" y="238" width="2" height="2"/><rect class="cls-1" x="8" y="238" width="2" height="2"/><rect class="cls-1" x="16" y="238" width="2" height="2"/><rect class="cls-1" x="24" y="238" width="2" height="2"/><rect class="cls-1" x="20" y="238" width="2" height="2"/><rect class="cls-1" x="28" y="238" width="2" height="2"/><rect class="cls-1" x="6" y="244" width="2" height="2"/><rect class="cls-1" x="14" y="244" width="2" height="2"/><rect class="cls-1" x="22" y="244" width="2" height="2"/><rect class="cls-1" x="30" y="244" width="2" height="2"/><rect class="cls-1" x="4" y="242" width="2" height="2"/><rect class="cls-1" x="12" y="242" width="2" height="2"/><rect class="cls-1" x="8" y="242" width="2" height="2"/><rect class="cls-1" x="16" y="242" width="2" height="2"/><rect class="cls-1" x="24" y="242" width="2" height="2"/><rect class="cls-1" x="20" y="242" width="2" height="2"/><rect class="cls-1" x="28" y="242" width="2" height="2"/><polygon class="cls-1" points="2 248 2 250 0 250 0 252 2 252 2 250 4 250 4 248 2 248"/><rect class="cls-1" x="10" y="248" width="2" height="2"/><rect class="cls-1" x="18" y="248" width="2" height="2"/><rect class="cls-1" x="26" y="248" width="2" height="2"/><rect class="cls-1" x="4" y="246" width="2" height="2"/><rect class="cls-1" x="0" y="246" width="2" height="2"/><rect class="cls-1" x="12" y="246" width="2" height="2"/><rect class="cls-1" x="8" y="246" width="2" height="2"/><rect class="cls-1" x="16" y="246" width="2" height="2"/><rect class="cls-1" x="24" y="246" width="2" height="2"/><rect class="cls-1" x="20" y="246" width="2" height="2"/><rect class="cls-1" x="28" y="246" width="2" height="2"/><rect class="cls-1" x="6" y="252" width="2" height="2"/><rect class="cls-1" x="14" y="252" width="2" height="2"/><rect class="cls-1" x="22" y="252" width="2" height="2"/><rect class="cls-1" x="30" y="252" width="2" height="2"/><rect class="cls-1" x="4" y="250" width="2" height="2"/><rect class="cls-1" x="12" y="250" width="2" height="2"/><rect class="cls-1" x="8" y="250" width="2" height="2"/><rect class="cls-1" x="16" y="250" width="2" height="2"/><rect class="cls-1" x="24" y="250" width="2" height="2"/><rect class="cls-1" x="20" y="250" width="2" height="2"/><rect class="cls-1" x="28" y="250" width="2" height="2"/><polygon class="cls-1" points="2 256 2 258 0 258 0 260 2 260 2 258 4 258 4 256 2 256"/><rect class="cls-1" x="10" y="256" width="2" height="2"/><rect class="cls-1" x="18" y="256" width="2" height="2"/><rect class="cls-1" x="26" y="256" width="2" height="2"/><rect class="cls-1" x="4" y="254" width="2" height="2"/><rect class="cls-1" x="0" y="254" width="2" height="2"/><rect class="cls-1" x="12" y="254" width="2" height="2"/><rect class="cls-1" x="8" y="254" width="2" height="2"/><rect class="cls-1" x="16" y="254" width="2" height="2"/><rect class="cls-1" x="24" y="254" width="2" height="2"/><rect class="cls-1" x="20" y="254" width="2" height="2"/><rect class="cls-1" x="28" y="254" width="2" height="2"/><rect class="cls-1" x="6" y="260" width="2" height="2"/><polygon class="cls-1" points="2 260 2 262 0 262 0 264 2 264 2 262 4 262 4 260 2 260"/><rect class="cls-1" x="10" y="260" width="2" height="2"/><rect class="cls-1" x="18" y="260" width="2" height="2"/><rect class="cls-1" x="14" y="260" width="2" height="2"/><rect class="cls-1" x="22" y="260" width="2" height="2"/><rect class="cls-1" x="30" y="260" width="2" height="2"/><rect class="cls-1" x="26" y="260" width="2" height="2"/><rect class="cls-1" x="4" y="258" width="2" height="2"/><rect class="cls-1" x="12" y="258" width="2" height="2"/><rect class="cls-1" x="8" y="258" width="2" height="2"/><rect class="cls-1" x="16" y="258" width="2" height="2"/><rect class="cls-1" x="24" y="258" width="2" height="2"/><rect class="cls-1" x="20" y="258" width="2" height="2"/><rect class="cls-1" x="28" y="258" width="2" height="2"/><polygon class="cls-1" points="2 264 2 266 0 266 0 268 2 268 2 266 4 266 4 264 2 264"/><rect class="cls-1" x="10" y="264" width="2" height="2"/><rect class="cls-1" x="18" y="264" width="2" height="2"/><rect class="cls-1" x="26" y="264" width="2" height="2"/><rect class="cls-1" x="4" y="262" width="2" height="2"/><rect class="cls-1" x="12" y="262" width="2" height="2"/><rect class="cls-1" x="8" y="262" width="2" height="2"/><rect class="cls-1" x="16" y="262" width="2" height="2"/><rect class="cls-1" x="24" y="262" width="2" height="2"/><rect class="cls-1" x="20" y="262" width="2" height="2"/><rect class="cls-1" x="28" y="262" width="2" height="2"/><rect class="cls-1" x="6" y="268" width="2" height="2"/><polygon class="cls-1" points="2 268 2 270 0 270 0 272 2 272 2 270 4 270 4 268 2 268"/><rect class="cls-1" x="10" y="268" width="2" height="2"/><rect class="cls-1" x="18" y="268" width="2" height="2"/><rect class="cls-1" x="14" y="268" width="2" height="2"/><rect class="cls-1" x="22" y="268" width="2" height="2"/><rect class="cls-1" x="30" y="268" width="2" height="2"/><rect class="cls-1" x="26" y="268" width="2" height="2"/><rect class="cls-1" x="4" y="266" width="2" height="2"/><rect class="cls-1" x="12" y="266" width="2" height="2"/><rect class="cls-1" x="8" y="266" width="2" height="2"/><rect class="cls-1" x="16" y="266" width="2" height="2"/><rect class="cls-1" x="24" y="266" width="2" height="2"/><rect class="cls-1" x="20" y="266" width="2" height="2"/><rect class="cls-1" x="28" y="266" width="2" height="2"/><polygon class="cls-1" points="2 272 2 274 0 274 0 276 2 276 2 274 4 274 4 272 2 272"/><rect class="cls-1" x="10" y="272" width="2" height="2"/><rect class="cls-1" x="18" y="272" width="2" height="2"/><rect class="cls-1" x="26" y="272" width="2" height="2"/><rect class="cls-1" x="4" y="270" width="2" height="2"/><rect class="cls-1" x="12" y="270" width="2" height="2"/><rect class="cls-1" x="8" y="270" width="2" height="2"/><rect class="cls-1" x="16" y="270" width="2" height="2"/><rect class="cls-1" x="24" y="270" width="2" height="2"/><rect class="cls-1" x="20" y="270" width="2" height="2"/><rect class="cls-1" x="28" y="270" width="2" height="2"/><rect class="cls-1" x="6" y="276" width="2" height="2"/><polygon class="cls-1" points="2 276 2 278 0 278 0 280 2 280 2 278 4 278 4 276 2 276"/><rect class="cls-1" x="10" y="276" width="2" height="2"/><rect class="cls-1" x="18" y="276" width="2" height="2"/><rect class="cls-1" x="14" y="276" width="2" height="2"/><rect class="cls-1" x="22" y="276" width="2" height="2"/><rect class="cls-1" x="30" y="276" width="2" height="2"/><rect class="cls-1" x="26" y="276" width="2" height="2"/><rect class="cls-1" x="4" y="274" width="2" height="2"/><rect class="cls-1" x="12" y="274" width="2" height="2"/><rect class="cls-1" x="8" y="274" width="2" height="2"/><rect class="cls-1" x="16" y="274" width="2" height="2"/><rect class="cls-1" x="24" y="274" width="2" height="2"/><rect class="cls-1" x="20" y="274" width="2" height="2"/><rect class="cls-1" x="28" y="274" width="2" height="2"/><rect class="cls-1" x="10" y="280" width="2" height="2"/><rect class="cls-1" x="18" y="280" width="2" height="2"/><rect class="cls-1" x="26" y="280" width="2" height="2"/><rect class="cls-1" x="4" y="278" width="2" height="2"/><rect class="cls-1" x="12" y="278" width="2" height="2"/><rect class="cls-1" x="8" y="278" width="2" height="2"/><rect class="cls-1" x="16" y="278" width="2" height="2"/><rect class="cls-1" x="24" y="278" width="2" height="2"/><rect class="cls-1" x="20" y="278" width="2" height="2"/><rect class="cls-1" x="28" y="278" width="2" height="2"/><path class="cls-1" d="M2,588h0s2,0,2,0h2s2,0,2,0h2s2,0,2,0h2s2,0,2,0h2s2,0,2,0h2s2,0,2,0h2s2,0,2,0h2s2,0,2,0v-2s0-2,0-2v-2s0-2,0-2v-2s0-2,0-2v-2s0-2,0-2v-2s0-2,0-2v-2s0-2,0-2v-2s0-2,0-2v-2s0-2,0-2v-2s0-2,0-2v-2s0-2,0-2v-2s0-2,0-2v-2s0-2,0-2v-2s0-2,0-2v-2s0-2,0-2v-2s0-2,0-2v-2s0-2,0-2h0s0-2,0-2v-2s0-2,0-2v-2s0-2,0-2v-2s0-2,0-2v-2s0-2,0-2v-2s0-2,0-2v-2s0-2,0-2v-2s0-2,0-2v-2s0-2,0-2v-2s0-2,0-2v-2s0-2,0-2v-2s0-2,0-2v-2s0-2,0-2v-2s0-2,0-2v-2s0-2,0-2v-2s0-2,0-2v-2s0-2,0-2v-2s-2,0-2,0h-2s0,2,0,2h-2s-2,0-2,0v2s-2,0-2,0h-2s0,2,0,2h-2s-2,0-2,0h0s0-2,0-2h2s2,0,2,0v-2s2,0,2,0h2s0-2,0-2h2s2,0,2,0v-2s2,0,2,0h2s0-2,0-2v-2s0-2,0-2h-2s-2,0-2,0v2s-2,0-2,0h-2s0,2,0,2h-2s-2,0-2,0v2s-2,0-2,0h-2s0,2,0,2h-2s-2,0-2,0v2s-2,0-2,0h-2s0,2,0,2h-2s-2,0-2,0v2s-2,0-2,0H0s0,2,0,2v2s0,2,0,2H2s0,2,0,2H0s0,2,0,2v2s0,2,0,2H2s0,2,0,2H0s0,2,0,2v2s0,2,0,2H2s0,2,0,2H0s0,2,0,2v2s0,2,0,2v2s0,2,0,2v2s2,0,2,0v2s-2,0-2,0v2s0,2,0,2v2s0,2,0,2v2s0,2,0,2v2s2,0,2,0v2s-2,0-2,0v2s0,2,0,2v2s0,2,0,2v2s0,2,0,2v2s0,2,0,2v2s0,2,0,2v2s0,2,0,2v2s0,2,0,2v2s0,2,0,2v2s0,2,0,2v2s0,2,0,2v2s0,2,0,2v2s0,2,0,2v2s0,2,0,2v2s0,2,0,2v2s0,2,0,2v2s0,2,0,2v2s0,2,0,2v2s0,2,0,2H2Zm2-68h2s0,2,0,2H4s0-2,0-2Zm0-16h2s0,2,0,2H4s0-2,0-2Zm0-14h2s0,2,0,2H4s0-2,0-2Zm8-20h2s2,0,2,0v-2s2,0,2,0v2s-2,0-2,0h0s-2,0-2,0v2s2,0,2,0h-2s-2,0-2,0v-2Zm0-2h2s2,0,2,0h-2s-2,0-2,0Zm14,36h-2s0,0,0,0v-2s2,0,2,0v2Zm0,16h-2s0,0,0,0v-2s2,0,2,0v2Zm-16,32h-2s2,0,2,0h2s2,0,2,0v2s-2,0-2,0h-2s-2,0-2,0h2s2,0,2,0v-2s-2,0-2,0Zm0-16h-2s2,0,2,0h2s2,0,2,0v2s-2,0-2,0h-2s-2,0-2,0h2s2,0,2,0v-2s-2,0-2,0Zm-2-24v-2s2,0,2,0h2s2,0,2,0h-2s-2,0-2,0v2s2,0,2,0h2s-2,0-2,0h-2s-2,0-2,0h0Zm0-16v-2s2,0,2,0v2s2,0,2,0h2s-2,0-2,0h-2s-2,0-2,0h0Zm4-10h2s2,0,2,0v-2s2,0,2,0v2s-2,0-2,0h0s-2,0-2,0v2s2,0,2,0h-2s-2,0-2,0v-2Zm10,28h-2s0-2,0-2h2s0,2,0,2Zm0-16h-2s0-2,0-2h2s0,2,0,2Zm-6,8h2s0,2,0,2h-2s0,0,0,0v-2Zm6,56h-2s0-2,0-2h2s0,2,0,2Zm0,16h-2s0-2,0-2h2s0,2,0,2Zm-2-32v-2s2,0,2,0v2s-2,0-2,0Zm0-16v-2s2,0,2,0v2s-2,0-2,0Zm-6-40h2s-2,0-2,0h-2s2,0,2,0Zm-2,8h2s-2,0-2,0h-2s2,0,2,0Zm-2,2h2s2,0,2,0v2s-2,0-2,0h-2s2,0,2,0v-2s-2,0-2,0Zm2,4h2s-2,0-2,0h-2s2,0,2,0Zm0,2h2s-2,0-2,0h-2s2,0,2,0Zm0,2h2s-2,0-2,0h-2s2,0,2,0Zm0,6h2s-2,0-2,0h-2s2,0,2,0Zm-2,2h2s2,0,2,0v2s-2,0-2,0h-2s2,0,2,0v-2s-2,0-2,0Zm2,4h2s-2,0-2,0h-2s2,0,2,0Zm4,2h2s0,2,0,2h-2s0-2,0-2Zm-8,12h2s2,0,2,0h-2s-2,0-2,0Zm2,6h2s-2,0-2,0h-2s2,0,2,0Zm0,2h2s-2,0-2,0h-2s2,0,2,0Zm-2,8h2s2,0,2,0h-2s-2,0-2,0Zm14-58h-2s0-2,0-2h2s0,2,0,2Zm0-8h-2s0-2,0-2h2s0,2,0,2Zm0-8h-2s0-2,0-2h2s0,2,0,2Zm-8-2h2s-2,0-2,0h-2s2,0,2,0Zm0,2h2s-2,0-2,0h-2s2,0,2,0Zm-2,2h2s2,0,2,0v-2s2,0,2,0v2s-2,0-2,0h0s-2,0-2,0v2s2,0,2,0h-2s-2,0-2,0v-2Zm2,4h2s-2,0-2,0h-2s2,0,2,0Zm0,2h2s-2,0-2,0h-2s2,0,2,0Zm-6,4h2s0,2,0,2h-2s0,0,0,0v-2Zm4,34h2s-2,0-2,0h-2s2,0,2,0Zm-2,8h2s-2,0-2,0h-2s2,0,2,0Zm-2-2h2s2,0,2,0h-2s-2,0-2,0Zm2,4h2s-2,0-2,0h-2s2,0,2,0Zm0,12h2s-2,0-2,0h-2s2,0,2,0Zm0,2h2s-2,0-2,0h-2s2,0,2,0Zm0,2h2s-2,0-2,0h-2s2,0,2,0Zm-2,10h2s-2,0-2,0h-2s2,0,2,0Zm0,8h2s-2,0-2,0h-2s2,0,2,0Zm-2-2h2s2,0,2,0h-2s-2,0-2,0Zm2,4h2s-2,0-2,0h-2s2,0,2,0Zm0,2h2s-2,0-2,0h-2s2,0,2,0Zm0,2h2s-2,0-2,0h-2s2,0,2,0Zm0,2h2s-2,0-2,0h-2s2,0,2,0Zm0,8h2s-2,0-2,0h-2s2,0,2,0Zm-2-2h2s2,0,2,0h-2s-2,0-2,0Zm2,4h2s-2,0-2,0h-2s2,0,2,0Zm18-94h-2s0,0,0,0v-2s2,0,2,0v2Zm0-8h-2s0,0,0,0v-2s2,0,2,0v2Zm0-8h-2s0,0,0,0v-2s2,0,2,0v2Zm0-8h-2s0,0,0,0v-2s2,0,2,0v2Zm-4,2h-2s0-2,0-2h2s0,2,0,2Zm-8-2h-2s2,0,2,0h2s-2,0-2,0Zm-6-2h2s0,2,0,2h-2s0,0,0,0v-2Zm0,8h2s0,2,0,2h-2s0,0,0,0v-2Zm0,8h2s0,2,0,2h-2s0,0,0,0v-2Zm2,46h2s-2,0-2,0h-2s2,0,2,0Zm-6,2h2s0,2,0,2H4s0-2,0-2Zm0,16h2s0,2,0,2H4s0-2,0-2Zm0,16h2s2,0,2,0h2s-2,0-2,0h-2s0,2,0,2h2s2,0,2,0h-2s-2,0-2,0H4s0-2,0-2Zm0,16h2s2,0,2,0h2s-2,0-2,0h-2s0,2,0,2h2s2,0,2,0h-2s-2,0-2,0H4s0-2,0-2Zm4,10h-2s2,0,2,0h2s-2,0-2,0Zm22-32h-2s0-2,0-2h2s0,2,0,2Zm0-16h-2s0-2,0-2h2s0,2,0,2Zm0-28h-2s0-2,0-2h2s0,2,0,2Zm0-22h-2s0-2,0-2h2s0,2,0,2Zm0-8h-2s0-2,0-2h2s0,2,0,2Zm0-8h-2s0-2,0-2h2s0,2,0,2Zm0-8h-2s0-2,0-2h2s0,2,0,2Zm-14,0h-2s-2,0-2,0v-2s2,0,2,0v2s2,0,2,0Zm0-6v2s-2,0-2,0h2s0-2,0-2h2s-2,0-2,0Zm0,0v-2s2,0,2,0h-2s0,2,0,2h-2s2,0,2,0Zm-12,8h2s0,2,0,2H4s0-2,0-2Zm0,8h2s0,2,0,2H4s0-2,0-2Zm0,8h2s0,2,0,2H4s0-2,0-2Zm0,42h2s2,0,2,0h0s-2,0-2,0H4s-2,0-2,0h0s2,0,2,0Z"/></svg>