<svg width="65" height="64" viewBox="0 0 65 64" fill="none" xmlns="http://www.w3.org/2000/svg">
<path fill-rule="evenodd" clip-rule="evenodd" d="M46.189 24.9456C46.2943 23.4085 46.289 21.8873 46.2844 20.5576L46.2844 20.5564C46.2835 20.2937 46.2826 20.0385 46.2826 19.7921C46.2826 11.5279 40.5472 4.10522 32.2831 4.10522C24.019 4.10522 18.2836 11.5279 18.2836 19.7921C18.2836 20.0388 18.2827 20.2944 18.2818 20.5576C18.2711 23.6292 18.2569 27.7226 19.61 30.6731C20.1586 31.8693 20.8473 33.008 21.6445 34.0535H20.2578L19.5043 34.2005C14.8682 36.0823 11.499 39.0299 9.31406 42.8248C7.14551 46.5912 6.21436 51.0664 6.21436 55.9269L8.21781 57.9303H56.2378L58.2412 55.9269C58.2412 51.0664 57.3101 46.5912 55.1415 42.8248C52.9566 39.0299 49.5874 36.0823 44.9513 34.2005L44.1978 34.0535H42.9216C43.7188 33.008 44.4076 31.8693 44.9562 30.6731C45.6896 29.0739 46.0213 27.1389 46.1696 25.2129C46.1818 25.1255 46.1884 25.0363 46.189 24.9456ZM42.0045 17.0189C40.9535 11.782 36.9733 8.11205 32.2831 8.11205C27.5808 8.11205 23.5923 11.8008 22.5536 17.059C25.0845 15.1637 28.5496 14.0627 32.3225 14.0627C36.0736 14.0627 39.4975 15.1494 42.0045 17.0189ZM20.6579 38.0603H25.9367C27.301 38.9379 28.7659 39.5682 30.2627 39.8738V42.0895H18.2285L16.2627 44.0554V53.9235H10.2829C10.5053 50.407 11.3301 47.3535 12.7865 44.824C14.4439 41.9453 16.9851 39.6281 20.6579 38.0603ZM44.2627 53.9235H20.1944V46.0212H44.2627V53.9235ZM48.1944 53.9235H54.1726C53.9503 50.407 53.1255 47.3535 51.6691 44.824C50.0117 41.9453 47.4705 39.6281 43.7977 38.0603H38.6294C37.232 38.9592 35.729 39.5986 34.1944 39.8955V42.0895H46.2285L48.1944 44.0554V53.9235ZM41.3211 22.0876C39.9304 19.8695 36.8772 18.0696 32.3225 18.0696C27.7599 18.0696 24.6792 19.8729 23.2711 22.0876H41.3211ZM42.13 24.2268L40.3082 27.9851H34.1841L32.2591 24.0093L30.2508 27.9851H24.2503L22.4443 24.2594C22.412 24.4844 22.3957 24.7092 22.3957 24.9324H22.3937C22.5289 26.6646 22.811 28.0411 23.252 29.0028C25.2383 33.3337 29.1917 36.0755 32.2831 36.0755C35.3744 36.0755 39.3279 33.3337 41.3141 29.0028C41.7581 28.0347 42.041 26.6462 42.1752 24.8977L42.1809 24.8213C42.1763 24.6238 42.1592 24.4253 42.13 24.2268Z" fill="#FF6633"/>
</svg>
