<svg width="65" height="65" viewBox="0 0 65 65" fill="none" xmlns="http://www.w3.org/2000/svg">
<path d="M32.748 10.1172H8.74805L6.74805 12.1172V52.0172L8.74805 54.0172H32.748V50.0172H10.748V25.0172H32.748V21.0172H10.748V14.1172H32.748V10.1172Z" fill="#FF6633"/>
<path d="M41.7129 14.1172H37.4238V10.1172H41.7129V14.1172Z" fill="#FF6633"/>
<path d="M50.6777 14.1172H46.3887V10.1172H50.6777V14.1172Z" fill="#FF6633"/>
<path d="M46.3887 21.0172H50.6777V25.0172H46.3887V21.0172Z" fill="#FF6633"/>
<path d="M37.4238 21.0172H41.7129V25.0172H37.4238V21.0172Z" fill="#FF6633"/>
<path d="M46.3887 50.0172H50.6777V54.0172H46.3887V50.0172Z" fill="#FF6633"/>
<path d="M37.4238 50.0172H41.7129V54.0172H37.4238V50.0172Z" fill="#FF6633"/>
<path d="M55.3535 54.0172H56.748L58.748 52.0172V49.0879H55.3535V54.0172Z" fill="#FF6633"/>
<path d="M58.748 44.4121V39.4199H55.3535V44.4121H58.748Z" fill="#FF6633"/>
<path d="M58.748 34.7441V29.752H55.3535V34.7441H58.748Z" fill="#FF6633"/>
<path d="M58.748 25.0762V20.084H55.3535V25.0762H58.748Z" fill="#FF6633"/>
<path d="M58.748 15.4082V12.1172L56.748 10.1172H55.3535V15.4082H58.748Z" fill="#FF6633"/>
<path d="M30.6582 17.0076C30.397 16.1451 29.5958 15.5172 28.648 15.5172C27.4882 15.5172 26.548 16.4574 26.548 17.6172C26.548 18.777 27.4882 19.7172 28.648 19.7172C29.5958 19.7172 30.397 19.0893 30.6582 18.2268V17.0076Z" fill="#FF6633"/>
<path d="M17.348 17.6172C17.348 18.777 16.4078 19.7172 15.248 19.7172C14.0882 19.7172 13.148 18.777 13.148 17.6172C13.148 16.4574 14.0882 15.5172 15.248 15.5172C16.4078 15.5172 17.348 16.4574 17.348 17.6172Z" fill="#FF6633"/>
<path d="M24.048 17.6172C24.048 18.777 23.1078 19.7172 21.948 19.7172C20.7882 19.7172 19.848 18.777 19.848 17.6172C19.848 16.4574 20.7882 15.5172 21.948 15.5172C23.1078 15.5172 24.048 16.4574 24.048 17.6172Z" fill="#FF6633"/>
</svg>
