<svg width="65" height="64" viewBox="0 0 65 64" fill="none" xmlns="http://www.w3.org/2000/svg">
<path d="M56.748 12H45.748V8H41.748V12H23.748V8H19.748V12H8.74805L6.74805 14V53.91L8.74805 55.91H56.748L58.748 53.91V14L56.748 12ZM19.748 16V20H23.748V16H41.748V20H45.748V16H54.748V22.88H10.748V16H19.748ZM10.748 51.91V26.91H54.748V51.91H10.748Z" fill="#FF6633"/>
<path d="M21.748 37.56C23.4049 37.56 24.748 36.2169 24.748 34.56C24.748 32.9031 23.4049 31.56 21.748 31.56C20.0912 31.56 18.748 32.9031 18.748 34.56C18.748 36.2169 20.0912 37.56 21.748 37.56Z" fill="#FF6633"/>
<path d="M21.748 47.34C23.4049 47.34 24.748 45.9969 24.748 44.34C24.748 42.6831 23.4049 41.34 21.748 41.34C20.0912 41.34 18.748 42.6831 18.748 44.34C18.748 45.9969 20.0912 47.34 21.748 47.34Z" fill="#FF6633"/>
<path d="M43.748 37.56C45.4049 37.56 46.748 36.2169 46.748 34.56C46.748 32.9031 45.4049 31.56 43.748 31.56C42.0912 31.56 40.748 32.9031 40.748 34.56C40.748 36.2169 42.0912 37.56 43.748 37.56Z" fill="#FF6633"/>
<path d="M43.748 41.34C43.1547 41.34 42.5747 41.5159 42.0813 41.8456C41.588 42.1752 41.2035 42.6438 40.9764 43.1919C40.7493 43.7401 40.6899 44.3433 40.8057 44.9253C40.9214 45.5072 41.2072 46.0418 41.6267 46.4613C42.0463 46.8809 42.5808 47.1666 43.1628 47.2824C43.7447 47.3981 44.3479 47.3387 44.8961 47.1116C45.4443 46.8846 45.9128 46.5001 46.2425 46.0067C46.5721 45.5134 46.748 44.9333 46.748 44.34C46.748 43.5443 46.432 42.7813 45.8694 42.2187C45.3068 41.6561 44.5437 41.34 43.748 41.34Z" fill="#FF6633"/>
<path d="M32.748 37.56C34.4049 37.56 35.748 36.2169 35.748 34.56C35.748 32.9031 34.4049 31.56 32.748 31.56C31.0912 31.56 29.748 32.9031 29.748 34.56C29.748 36.2169 31.0912 37.56 32.748 37.56Z" fill="#FF6633"/>
<path d="M32.748 47.34C34.4049 47.34 35.748 45.9969 35.748 44.34C35.748 42.6831 34.4049 41.34 32.748 41.34C31.0912 41.34 29.748 42.6831 29.748 44.34C29.748 45.9969 31.0912 47.34 32.748 47.34Z" fill="#FF6633"/>
</svg>
