<svg width="65" height="64" viewBox="0 0 65 64" fill="none" xmlns="http://www.w3.org/2000/svg">
<path d="M24.2413 19.4214C23.2933 18.0626 21.4232 17.7296 20.0644 18.6776C18.7056 19.6257 18.3725 21.4957 19.3206 22.8546C20.2686 24.2134 22.1387 24.5464 23.4975 23.5984C24.8563 22.6503 25.1893 20.7803 24.2413 19.4214Z" fill="#FF6633"/>
<path d="M46.2066 45.4071C44.8478 46.3551 42.9777 46.0221 42.0297 44.6633C41.0816 43.3044 41.4146 41.4344 42.7735 40.4863C44.1323 39.5383 46.0024 39.8713 46.9504 41.2301C47.8984 42.589 47.5654 44.459 46.2066 45.4071Z" fill="#FF6633"/>
<path fill-rule="evenodd" clip-rule="evenodd" d="M32.9623 6.00078C32.895 6.00026 32.8276 6 32.7603 6C27.618 6 22.5911 7.52487 18.3154 10.3818C14.0398 13.2387 10.7073 17.2994 8.7394 22.0502C7.42643 25.22 6.76028 28.6021 6.76025 32C6.76024 33.6949 6.92598 35.3939 7.25985 37.0723C8.26306 42.1159 10.7393 46.7486 14.3755 50.3848C18.0117 54.0209 22.6444 56.4972 27.6879 57.5004C29.4332 57.8476 31.2006 58.013 32.9626 57.9992C33.0041 57.9997 33.0456 58 33.0873 58C33.2643 58 33.4398 57.9953 33.6138 57.986C36.7234 57.8838 39.8058 57.2238 42.71 56.0209C47.4609 54.053 51.5216 50.7205 54.3785 46.4448C57.2354 42.1692 58.7603 37.1423 58.7603 32C58.7603 25.1044 56.021 18.4912 51.145 13.6152C46.4705 8.94068 40.1993 6.22994 33.6132 6.01398C33.4395 6.0047 33.2641 6 33.0873 6C33.0455 6 33.0038 6.00026 32.9623 6.00078ZM23.4586 12.0631C22.4488 12.5342 21.4721 13.0834 20.5377 13.7077C16.9198 16.1251 14.1 19.561 12.4349 23.581C11.5821 25.6398 11.0518 27.8046 10.8514 30H18.6564C18.701 28.8082 18.7854 27.6361 18.9084 26.4899L22.906 26.7293C22.7877 27.7891 22.7047 28.8811 22.6594 30H30.7483V10.5188C28.9649 11.3287 27.2743 13.1005 25.8499 15.9289C25.7566 16.1143 25.6649 16.3034 25.575 16.4959L21.7024 15.3514C21.8863 14.933 22.078 14.5256 22.2774 14.1298C22.6397 13.4103 23.0336 12.7185 23.4586 12.0631ZM30.7483 34H22.6594C22.8852 39.5836 24.0513 44.4994 25.8499 48.0711C27.2743 50.8995 28.9649 52.6713 30.7483 53.4812V34ZM23.4586 51.9369C23.0336 51.2815 22.6397 50.5897 22.2774 49.8702C20.1456 45.6369 18.8836 40.0745 18.6564 34H10.8513C10.9213 34.7668 11.0318 35.5319 11.183 36.292C12.0319 40.5596 14.1272 44.4796 17.2039 47.5563C19.0271 49.3795 21.1464 50.8581 23.4586 51.9369ZM43.0134 51.4647C46.2448 49.7626 49.0117 47.277 51.0526 44.2225C53.098 41.1614 54.3364 37.6453 54.6692 34H47.5191C47.4735 35.219 47.3862 36.4174 47.2586 37.5886L43.2607 37.3492C43.3837 36.2649 43.4697 35.1465 43.5161 34H34.7483V53.7417C36.7796 53.1009 38.7212 51.2558 40.3251 48.071C40.4105 47.9015 40.4944 47.729 40.5769 47.5536L44.4507 48.6985C44.2735 49.0994 44.0891 49.4902 43.8976 49.8703C43.6212 50.4191 43.3263 50.9519 43.0134 51.4647ZM43.5161 30H34.7483V10.2583C36.7796 10.8991 38.7212 12.7442 40.3251 15.929C42.124 19.5006 43.2902 24.4165 43.5161 30ZM47.5191 30C47.2919 23.9254 46.0297 18.363 43.8976 14.1297C43.6212 13.5808 43.3263 13.0481 43.0133 12.5353C44.9499 13.5553 46.7405 14.8675 48.3166 16.4437C51.9683 20.0954 54.2037 24.8987 54.6692 30H47.5191Z" fill="#FF6633"/>
</svg>
