<svg width="65" height="64" viewBox="0 0 65 64" fill="none" xmlns="http://www.w3.org/2000/svg">
<g clip-path="url(#clip0_26672_4170)">
<path d="M60.618 30.1761C58.3819 28.3071 55.53 27.3374 52.618 27.4561C52.0316 23.2485 50.0733 19.352 47.0468 16.3708C44.0203 13.3895 40.0948 11.4902 35.8789 10.9672C31.663 10.4442 27.3923 11.3268 23.7291 13.4781C20.0659 15.6295 17.2148 18.9293 15.6181 22.8661C12.1036 22.6402 8.63824 23.7834 5.94805 26.0561C4.34127 27.4078 3.04497 29.0902 2.14758 30.9886C1.25019 32.8869 0.772823 34.9565 0.74805 37.0561C0.745371 40.8241 2.23624 44.4396 4.89408 47.1106C7.55193 49.7815 11.16 51.2902 14.9281 51.3061H52.8081C55.2644 51.3107 57.6629 50.5614 59.6798 49.1595C61.6968 47.7575 63.2349 45.7704 64.0865 43.4664C64.938 41.1624 65.0621 38.6526 64.4418 36.2759C63.8216 33.8992 62.4869 31.7701 60.618 30.1761ZM52.8081 47.3061H14.9381C12.2344 47.2929 9.64563 46.2109 7.73662 44.2963C5.82762 42.3817 4.7533 39.7898 4.74805 37.0861C4.76209 35.5596 5.10631 34.0542 5.75706 32.6732C6.40782 31.2923 7.3497 30.0686 8.51805 29.0861C10.2598 27.6168 12.4695 26.8188 14.7481 26.8361C15.3852 26.8367 16.021 26.8936 16.6481 27.0061L18.3881 27.3161L18.8981 25.6261C19.989 22.196 22.2551 19.2607 25.2973 17.3371C28.3396 15.4134 31.9629 14.6247 35.5295 15.1098C39.0961 15.5949 42.3772 17.3227 44.7951 19.989C47.2131 22.6553 48.6129 26.0892 48.7481 29.6861L48.848 32.0061L51.1081 31.6461C52.3078 31.3841 53.5508 31.3937 54.7464 31.674C55.942 31.9543 57.0598 32.4982 58.0181 33.2661C58.8809 34.0301 59.5707 34.9694 60.0415 36.0214C60.5123 37.0733 60.7532 38.2136 60.7481 39.3661C60.7324 41.467 59.8908 43.4775 58.4051 44.9631C56.9195 46.4488 54.909 47.2904 52.8081 47.3061Z" fill="#FF6633"/>
<path fill-rule="evenodd" clip-rule="evenodd" d="M26.4678 24.8905L29.4871 23.1698L44.5736 32.1065L44.5766 35.5462L29.4902 44.519L26.4678 42.8001V24.8905ZM30.4678 28.3998V39.2835L39.6359 33.8307L30.4678 28.3998Z" fill="#FF6633"/>
</g>
<defs>
<clipPath id="clip0_26672_4170">
<rect width="64" height="64" fill="white" transform="translate(0.748047)"/>
</clipPath>
</defs>
</svg>
