<svg width="65" height="65" viewBox="0 0 65 65" fill="none" xmlns="http://www.w3.org/2000/svg">
<path d="M44.4699 14.1958H40.041V23.9266L44.4699 23.9411V14.1958Z" fill="#FF6633"/>
<path d="M34.2432 19.8185L38.8572 24.4325L35.7153 27.5539L31.1115 22.9501L34.2432 19.8185Z" fill="#FF6633"/>
<path d="M25.4922 28.7446H35.2382L35.2237 33.1735H25.4922V28.7446Z" fill="#FF6633"/>
<path d="M31.116 38.9695L35.7295 34.3559L38.851 37.4978L34.2477 42.1012L31.116 38.9695Z" fill="#FF6633"/>
<path d="M40.041 47.7223V37.975L44.4699 37.9895V47.7223H40.041Z" fill="#FF6633"/>
<path d="M50.267 42.1053L45.6492 37.4875L48.7911 34.366L53.3987 38.9736L50.267 42.1053Z" fill="#FF6633"/>
<path d="M59.0187 33.1735H49.2721L49.2865 28.7446H59.0187V33.1735Z" fill="#FF6633"/>
<path d="M53.3985 22.95L48.7845 27.564L45.6631 24.4221L50.2669 19.8183L53.3985 22.95Z" fill="#FF6633"/>
<path d="M17.9277 15.1958V17.6948H15.4277V21.6948H17.9277V24.1958H21.9277V21.6948H24.4277V17.6948H21.9277V15.1958H17.9277Z" fill="#FF6633"/>
<path d="M17.9277 54.2876V49.7222H13.3633V45.7222H17.9277V41.1587H21.9277V45.7222H26.4922V49.7222H21.9277V54.2876H17.9277Z" fill="#FF6633"/>
</svg>
