<svg width="65" height="64" viewBox="0 0 65 64" fill="none" xmlns="http://www.w3.org/2000/svg">
<path d="M52.748 8H46.748V6L44.748 4H20.748L18.748 6V8H12.748L10.748 10V56L12.748 58H52.748L54.748 56V10L52.748 8ZM22.748 8H42.748V12H22.748V8ZM50.748 54H14.748V12H18.748V14L20.748 16H44.748L46.748 14V12H50.748V54Z" fill="#FF6633"/>
<path d="M32.659 20.687H19.321V24.687H32.659V20.687Z" fill="#FF6633"/>
<path d="M46.175 29.046H19.321V33.046H46.175V29.046Z" fill="#FF6633"/>
<path d="M46.175 37.405H19.321V41.405H46.175V37.405Z" fill="#FF6633"/>
</svg>
