<svg width="526" height="368" viewBox="0 0 526 368" fill="none" xmlns="http://www.w3.org/2000/svg">
<path d="M82.0918 65.4976C30.193 104.196 6.40612 160.452 1 183.743H263.197V1C192.917 3.6874 146.965 17.1244 82.0918 65.4976Z" fill="black" stroke="black"/>
<path d="M444.105 65.4976C496.004 104.196 519.791 160.452 525.197 183.743H263V1C333.28 3.6874 379.232 17.1244 444.105 65.4976Z" fill="black" stroke="black"/>
<path d="M82.0918 301.987C30.193 263.288 6.40612 207.032 1 183.741H263.197V366.484C192.917 363.797 146.965 350.36 82.0918 301.987Z" fill="black" stroke="black"/>
<path d="M444.105 302.245C496.004 263.546 519.791 207.29 525.197 183.999H263V366.742C333.28 364.055 379.232 350.618 444.105 302.245Z" fill="black" stroke="black"/>
</svg>
