<svg width="80" height="65" viewBox="0 0 80 65" fill="none" xmlns="http://www.w3.org/2000/svg">
<path d="M13.0664 12.1099C5.34389 18.7759 1.80443 28.4662 1 32.4781H40.0146V1C29.5571 1.46291 22.7195 3.77748 13.0664 12.1099Z" fill="black" stroke="black" stroke-width="0.148799"/>
<path d="M66.9336 12.1099C74.6561 18.7759 78.1956 28.4662 79 32.4781H39.9854V1C50.4429 1.46291 57.2805 3.77748 66.9336 12.1099Z" fill="black" stroke="black" stroke-width="0.148799"/>
<path d="M13.0664 52.8471C5.34389 46.1812 1.80443 36.4909 1 32.479H40.0146V63.957C29.5571 63.4941 22.7195 61.1796 13.0664 52.8471Z" fill="black" stroke="black" stroke-width="0.148799"/>
<path d="M66.9336 52.8901C74.6561 46.2241 78.1956 36.5338 79 32.5219H39.9854V64C50.4429 63.5371 57.2805 61.2225 66.9336 52.8901Z" fill="black" stroke="black" stroke-width="0.148799"/>
</svg>
