<svg xmlns:xlink="http://www.w3.org/1999/xlink" xmlns="http://www.w3.org/2000/svg" fill="var(--geist-foreground)" height="411" viewBox="0 0 363 411" width="363" ><path clip-rule="evenodd" d="M363 128.301V267.812L362.976 267.811V284.175C362.976 303.506 352.497 321.319 335.583 330.734C299.928 350.566 238.034 384.983 203.087 404.424C186.985 413.378 167.34 413.177 151.432 403.888L31.7583 334.035C12.0908 322.554 0 301.514 0 278.761V135.921C0 112.983 11.9082 91.6899 31.4614 79.6504C63.8823 59.6836 114.108 28.7583 146.301 8.93653C165.26 -2.7373 189.122 -2.99072 208.333 8.27491C244.706 29.6167 304.097 64.4619 337.714 84.1846C353.377 93.375 363 110.159 363 128.301ZM102.11 101.02V308.24H145.464V217.634H217.38V308.24H260.86V101.02H217.38V176.5H145.464V101.02H102.11Z" fill-rule="evenodd" fill="#FFFFFF"></path></svg>