<svg width="65" height="64" viewBox="0 0 65 64" fill="none" xmlns="http://www.w3.org/2000/svg">
<path d="M56.748 13.9999H50.748V9.99989L48.048 8.12988L32.748 13.8599L17.448 8.12988L14.748 9.99989V13.9999H8.74805L6.74805 15.9999V56L8.74805 58H56.748L58.748 56V15.9999L56.748 13.9999ZM34.748 17.3899L46.748 12.8899V46.75L34.748 52.75V17.3899ZM18.748 12.8899L30.748 17.3899V52.72L18.748 46.72V12.8899ZM10.748 17.9999H14.748V48L15.858 49.79L24.228 54H10.748V17.9999ZM54.748 54H41.268L49.638 49.83L50.748 48V17.9999H54.748V54Z" fill="#FF6633"/>
</svg>
