<svg width="65" height="64" viewBox="0 0 65 64" fill="none" xmlns="http://www.w3.org/2000/svg">
<path d="M32.748 5.44995C27.3631 5.45525 22.2002 7.59674 18.3925 11.4045C14.5848 15.2122 12.4433 20.375 12.438 25.76C12.438 39.76 30.228 62.76 30.988 63.68H34.128C34.908 62.68 53.058 39.68 53.058 25.74C53.0474 20.3585 50.9036 15.2008 47.0964 11.3974C43.2893 7.59399 38.1295 5.45523 32.748 5.44995ZM32.578 59.13C28.258 53.22 16.438 36.13 16.438 25.76C16.438 21.4343 18.1564 17.2858 21.2151 14.227C24.2738 11.1683 28.4223 9.44995 32.748 9.44995C37.0737 9.44995 41.2222 11.1683 44.2809 14.227C47.3396 17.2858 49.058 21.4343 49.058 25.76C49.058 36.11 36.988 53.2299 32.578 59.13Z" fill="#FF6633"/>
<path d="M32.668 17C30.888 17 29.1479 17.5278 27.6679 18.5167C26.1878 19.5057 25.0343 20.9113 24.3531 22.5558C23.6719 24.2003 23.4937 26.0099 23.8409 27.7558C24.1882 29.5016 25.0454 31.1052 26.304 32.3639C27.5627 33.6226 29.1663 34.4798 30.9122 34.827C32.658 35.1743 34.4676 34.9961 36.1121 34.3149C37.7567 33.6337 39.1623 32.4801 40.1512 31.0001C41.1401 29.52 41.668 27.78 41.668 26C41.668 23.613 40.7198 21.3238 39.0319 19.636C37.3441 17.9482 35.0549 17 32.668 17ZM32.668 31C31.6791 31 30.7124 30.7067 29.8901 30.1573C29.0679 29.6079 28.427 28.827 28.0486 27.9134C27.6702 26.9997 27.5711 25.9944 27.7641 25.0245C27.957 24.0546 28.4332 23.1637 29.1325 22.4644C29.8317 21.7652 30.7226 21.289 31.6925 21.096C32.6624 20.9031 33.6678 21.0021 34.5814 21.3806C35.495 21.759 36.2759 22.3999 36.8253 23.2221C37.3747 24.0443 37.668 25.011 37.668 26C37.6773 26.6624 37.5548 27.3201 37.3077 27.9349C37.0605 28.5496 36.6937 29.1091 36.2285 29.5808C35.7633 30.0526 35.2089 30.4271 34.5977 30.6828C33.9865 30.9384 33.3305 31.07 32.668 31.07V31Z" fill="#FF6633"/>
</svg>
