<svg width="65" height="65" viewBox="0 0 65 65" fill="none" xmlns="http://www.w3.org/2000/svg">
<path d="M26.7481 19.6003L23.7481 21.3203V45.0603L26.7481 46.7803L46.7481 34.8903V31.4503L26.7481 19.6003ZM27.7481 41.5303V24.8303L41.8281 33.1703L27.7481 41.5303Z" fill="#FF6633"/>
<path d="M32.7481 6.53027C27.6057 6.53027 22.5789 8.05515 18.3032 10.9121C14.0276 13.769 10.6951 17.8296 8.72719 22.5805C6.75931 27.3314 6.24443 32.5591 7.24764 37.6026C8.25086 42.6461 10.7271 47.2789 14.3633 50.9151C17.9994 54.5512 22.6322 57.0275 27.6757 58.0307C32.7192 59.0339 37.9469 58.519 42.6978 56.5511C47.4487 54.5833 51.5093 51.2508 54.3663 46.9751C57.2232 42.6994 58.7481 37.6726 58.7481 32.5303C58.7481 25.6346 56.0088 19.0214 51.1328 14.1455C46.2569 9.26955 39.6437 6.53027 32.7481 6.53027ZM32.7481 54.5303C28.3969 54.5303 24.1434 53.24 20.5255 50.8226C16.9076 48.4052 14.0878 44.9693 12.4227 40.9493C10.7576 36.9293 10.3219 32.5059 11.1708 28.2383C12.0197 23.9707 14.115 20.0507 17.1917 16.9739C20.2685 13.8972 24.1885 11.8019 28.4561 10.953C32.7237 10.1041 37.1471 10.5398 41.1671 12.2049C45.1871 13.8701 48.623 16.6898 51.0404 20.3077C53.4578 23.9256 54.7481 28.1791 54.7481 32.5303C54.7481 38.365 52.4302 43.9608 48.3044 48.0866C44.1786 52.2124 38.5828 54.5303 32.7481 54.5303Z" fill="#FF6633"/>
</svg>
