<svg width="65" height="65" viewBox="0 0 65 65" fill="none" xmlns="http://www.w3.org/2000/svg">
<path fill-rule="evenodd" clip-rule="evenodd" d="M29.834 8.01562H24.884L42.734 32.4156L25.304 56.0156H30.284L47.704 32.4256L29.834 8.01562ZM25.344 49.2356L12.484 32.0356L25.274 15.3256L22.804 11.9556L8.39402 30.8056L8.37402 33.2156L22.854 52.6056L25.344 49.2356ZM34.394 8.01562H39.404L56.624 30.9256V33.3356L39.414 56.0156H34.394L52.524 32.1256L34.394 8.01562ZM29.9376 29.1902L31.2811 22.3274L29.2922 19.6191L20.4014 33.3162L21.5788 35.4633H25.0896L23.7752 42.2618L25.7195 44.8037L34.6259 31.3425L33.4456 29.1902H29.9376Z" fill="#FF6633"/>
</svg>
