<svg width="65" height="65" viewBox="0 0 65 65" fill="none" xmlns="http://www.w3.org/2000/svg">
<path fill-rule="evenodd" clip-rule="evenodd" d="M7.13232 20.1967L32.7485 34.8511L58.3785 20.1889L32.8664 5.8567L7.13232 20.1967ZM1.75988 20.5585L1.77507 18.6029L31.8968 1.81787L33.8499 1.82125L63.7282 18.6063L63.7342 20.5568L63.7485 20.5651V43.9777L62.7415 45.7138L33.7415 62.3012L32.7485 61.7252L31.7555 62.3012L2.75554 45.7138L1.74854 43.9777V22.082L1.74805 22.0817L1.74854 22.0188V20.5651L1.75988 20.5585ZM5.74854 24.3931V42.8176L30.7485 57.1171V38.8375L5.74854 24.3931ZM34.7485 38.6104V57.1171L59.7485 42.8176V24.3618L34.7485 38.6104Z" fill="#FF6633"/>
<path fill-rule="evenodd" clip-rule="evenodd" d="M33.7485 62.3149H31.7485V60.8149H33.7485V62.3149Z" fill="#FF6633"/>
<path fill-rule="evenodd" clip-rule="evenodd" d="M37.7485 27.5771H37.7485V27.5649V25.5693C37.7485 25.5679 37.7485 25.5664 37.7485 25.5649C37.7485 23.9081 35.51 22.5649 32.7485 22.5649C29.9871 22.5649 27.7485 23.9081 27.7485 25.5649C27.7485 25.5664 27.7485 25.5679 27.7485 25.5693H27.7485V27.5649V27.5771H27.7486C27.7595 29.2284 29.9939 30.5649 32.7485 30.5649C35.5032 30.5649 37.7375 29.2284 37.7485 27.5771Z" fill="#FF6633"/>
<path fill-rule="evenodd" clip-rule="evenodd" d="M37.7485 14.5771H37.7485V14.5649V12.5693C37.7485 12.5679 37.7485 12.5664 37.7485 12.5649C37.7485 10.9081 35.51 9.56494 32.7485 9.56494C29.9871 9.56494 27.7485 10.9081 27.7485 12.5649C27.7485 12.5664 27.7485 12.5679 27.7485 12.5693H27.7485V14.5649V14.5771H27.7486C27.7595 16.2284 29.9939 17.5649 32.7485 17.5649C35.5032 17.5649 37.7375 16.2284 37.7485 14.5771Z" fill="#FF6633"/>
<path fill-rule="evenodd" clip-rule="evenodd" d="M25.7485 20.5771H25.7485V20.5649V18.5693C25.7485 18.5679 25.7485 18.5664 25.7485 18.5649C25.7485 16.9081 23.51 15.5649 20.7485 15.5649C17.9871 15.5649 15.7485 16.9081 15.7485 18.5649C15.7485 18.5664 15.7485 18.5679 15.7485 18.5693H15.7485V20.5649V20.5771H15.7486C15.7595 22.2284 17.9939 23.5649 20.7485 23.5649C23.5032 23.5649 25.7375 22.2284 25.7485 20.5771Z" fill="#FF6633"/>
<path fill-rule="evenodd" clip-rule="evenodd" d="M50.7485 20.5771H50.7485V20.5649V18.5693C50.7485 18.5679 50.7485 18.5664 50.7485 18.5649C50.7485 16.9081 48.51 15.5649 45.7485 15.5649C42.9871 15.5649 40.7485 16.9081 40.7485 18.5649C40.7485 18.5664 40.7485 18.5679 40.7485 18.5693H40.7485V20.5649V20.5771H40.7486C40.7595 22.2284 42.9939 23.5649 45.7485 23.5649C48.5032 23.5649 50.7375 22.2284 50.7485 20.5771Z" fill="#FF6633"/>
</svg>
