<svg width="65" height="65" viewBox="0 0 65 65" fill="none" xmlns="http://www.w3.org/2000/svg">
<path d="M34.7481 10.9424H38.6081V6.94238H26.8881V10.9424H30.7481V13.9424C24.9769 14.4574 19.6269 17.1789 15.8123 21.5401C11.9977 25.9013 10.0126 31.566 10.2703 37.3543C10.5281 43.1426 13.0089 48.6084 17.1961 52.6133C21.3833 56.6181 26.954 58.8533 32.7481 58.8533C38.5421 58.8533 44.1129 56.6181 48.3 52.6133C52.4872 48.6084 54.968 43.1426 55.2258 37.3543C55.4836 31.566 53.4984 25.9013 49.6838 21.5401C45.8692 17.1789 40.5192 14.4574 34.7481 13.9424V10.9424ZM32.7481 54.7424C29.0891 54.7424 25.5123 53.6574 22.47 51.6246C19.4277 49.5918 17.0565 46.7025 15.6563 43.322C14.2561 39.9416 13.8897 36.2219 14.6035 32.6332C15.3174 29.0446 17.0793 25.7482 19.6666 23.1609C22.2539 20.5736 25.5502 18.8117 29.1389 18.0979C32.7275 17.384 36.4473 17.7504 39.8277 19.1506C43.2081 20.5508 46.0974 22.922 48.1303 25.9643C50.1631 29.0066 51.2481 32.5834 51.2481 36.2424C51.2428 41.1473 49.292 45.8497 45.8237 49.318C42.3554 52.7863 37.6529 54.7371 32.7481 54.7424Z" fill="#FF6633"/>
<path d="M41.4109 24.3926L21.2624 44.4218L24.0825 47.2586L44.2309 27.2294L41.4109 24.3926Z" fill="#FF6633"/>
</svg>
