<svg width="65" height="65" viewBox="0 0 65 65" fill="none" xmlns="http://www.w3.org/2000/svg">
<path d="M60.108 54.3054L39.748 35.7954C42.5074 32.0117 43.712 27.3144 43.1143 22.6696C42.5165 18.0249 40.1617 13.7857 36.5342 10.8239C32.9067 7.86206 28.2822 6.40276 23.6117 6.74608C18.9413 7.0894 14.5799 9.20923 11.4244 12.6696C8.26901 16.1301 6.55943 20.668 6.64727 25.3502C6.7351 30.0325 8.61368 34.5031 11.8967 37.8427C15.1797 41.1824 19.6175 43.1371 24.2976 43.305C28.9776 43.4729 33.5441 41.8412 37.058 38.7454L57.408 57.2554L60.108 54.3054ZM25.008 39.3054C22.1894 39.3054 19.4339 38.4701 17.0898 36.905C14.7456 35.3398 12.9178 33.1151 11.8374 30.5117C10.7569 27.9084 10.4722 25.0432 11.0192 22.2781C11.5662 19.5131 12.9203 16.9721 14.9106 14.9762C16.9009 12.9804 19.4381 11.6191 22.2016 11.0643C24.9651 10.5096 27.8311 10.7863 30.4374 11.8595C33.0438 12.9327 35.2736 14.7542 36.8454 17.0939C38.4171 19.4337 39.2601 22.1868 39.268 25.0054C39.2627 28.7858 37.7586 32.4098 35.0855 35.0829C32.4124 37.7561 28.7884 39.2602 25.008 39.2654V39.3054Z" fill="#FF6633"/>
</svg>
