<svg xmlns:xlink="http://www.w3.org/1999/xlink" xmlns="http://www.w3.org/2000/svg" fill="none" height="112" viewBox="0 0 94 112" width="94" ><path clip-rule="evenodd" d="M41.464 4.983c14.85-9.46 35.39-5.05 45.79 9.83v.08a31.9 31.9 0 015.45 24.12 30.126 30.126 0 01-4.48 11.18 31.52 31.52 0 013.11 20.23 30 30 0 01-13.52 20l-26.08 16.55c-14.85 9.46-35.39 5.05-45.79-9.83a31.862 31.862 0 01-5.45-24.12 29.94 29.94 0 014.47-11.18 31.53 31.53 0 01-3.1-20.24 29.895 29.895 0 0113.52-20l26.08-16.62zm-14.967 92.97a20.73 20.73 0 0012.417.63 19.176 19.176 0 005.3-2.33l26.09-16.62a18 18 0 008.13-12.06 19.157 19.157 0 00-3.28-14.5 20.701 20.701 0 00-22.23-8.24 18.614 18.614 0 00-5.3 2.33l-10 6.34a6 6 0 01-1.6.7 6.248 6.248 0 01-6.65-2.48 5.837 5.837 0 01-1-4.38 5.45 5.45 0 012.45-3.63l26.09-16.59a5.719 5.719 0 011.6-.7 6.23 6.23 0 016.66 2.41 5.86 5.86 0 011.06 3.88l-.09 1 1 .29a33.781 33.781 0 0110.2 5.1l1.33 1 .5-1.5c.257-.796.464-1.608.62-2.43a19.137 19.137 0 00-3.28-14.5 20.71 20.71 0 00-22.23-8.25 19.054 19.054 0 00-5.26 2.32l-26.12 16.62a18 18 0 00-8.13 12.06 19.159 19.159 0 003.25 14.5 20.72 20.72 0 0022.2 8.24c1.87-.5 3.655-1.283 5.29-2.32l10-6.35a5.719 5.719 0 011.6-.7 6.25 6.25 0 016.7 2.48 5.771 5.771 0 011 4.37 5.417 5.417 0 01-2.45 3.64l-26.04 16.62a5.852 5.852 0 01-1.6.7 6.25 6.25 0 01-6.7-2.48 5.9 5.9 0 01-1.09-3.85l.09-1-1-.29a33.778 33.778 0 01-10.17-5.06l-1.34-1-.49 1.5a17.022 17.022 0 00-.62 2.41 19.139 19.139 0 003.27 14.5 20.728 20.728 0 009.823 7.62z" fill="#FF3E00" fill-rule="evenodd"></path></svg>