<svg width="65" height="65" viewBox="0 0 65 65" fill="none" xmlns="http://www.w3.org/2000/svg">
<g clip-path="url(#clip0_26672_4306)">
<path d="M32.7702 33.4439C34.6491 33.4439 36.4858 32.8867 38.0481 31.8428C39.6103 30.7989 40.828 29.3152 41.547 27.5793C42.266 25.8434 42.4542 23.9333 42.0876 22.0905C41.7211 20.2477 40.8163 18.5549 39.4877 17.2263C38.1591 15.8977 36.4663 14.993 34.6235 14.6264C32.7807 14.2598 30.8706 14.448 29.1347 15.167C27.3988 15.886 25.9151 17.1037 24.8712 18.6659C23.8273 20.2282 23.2702 22.0649 23.2702 23.9439C23.2723 26.4628 24.2738 28.8779 26.055 30.659C27.8361 32.4402 30.2512 33.4417 32.7702 33.4439ZM32.7702 18.4489C33.858 18.4489 34.9213 18.7714 35.8258 19.3758C36.7303 19.9801 37.4352 20.8391 37.8515 21.8441C38.2678 22.8491 38.3767 23.955 38.1645 25.0218C37.9523 26.0887 37.4284 27.0688 36.6592 27.8379C35.8901 28.6071 34.91 29.131 33.8432 29.3432C32.7763 29.5554 31.6704 29.4465 30.6654 29.0302C29.6604 28.6139 28.8014 27.909 28.1971 27.0045C27.5927 26.1 27.2702 25.0366 27.2702 23.9489C27.2702 22.4902 27.8496 21.0912 28.8811 20.0598C29.9125 19.0283 31.3115 18.4489 32.7702 18.4489Z" fill="#FF6633"/>
<path d="M12.8002 37.5889C14.1846 37.5889 15.538 37.1783 16.6891 36.4091C17.8403 35.64 18.7375 34.5467 19.2673 33.2676C19.7971 31.9886 19.9357 30.5811 19.6657 29.2232C19.3956 27.8654 18.7289 26.6181 17.7499 25.6391C16.7709 24.6601 15.5237 23.9935 14.1658 23.7234C12.8079 23.4533 11.4005 23.5919 10.1214 24.1217C8.84229 24.6515 7.74904 25.5487 6.97987 26.6999C6.2107 27.851 5.80016 29.2044 5.80016 30.5889C5.80201 32.4448 6.5401 34.2242 7.85246 35.5366C9.16481 36.8489 10.9442 37.587 12.8002 37.5889ZM12.8002 27.5889C13.3935 27.5889 13.9735 27.7648 14.4669 28.0944C14.9602 28.4241 15.3447 28.8926 15.5718 29.4408C15.7989 29.989 15.8583 30.5922 15.7425 31.1741C15.6268 31.7561 15.341 32.2906 14.9215 32.7102C14.5019 33.1297 13.9674 33.4155 13.3854 33.5312C12.8035 33.647 12.2003 33.5876 11.6521 33.3605C11.1039 33.1334 10.6354 32.7489 10.3057 32.2556C9.9761 31.7622 9.80016 31.1822 9.80016 30.5889C9.80095 29.7937 10.1174 29.0314 10.6799 28.4695C11.2424 27.9075 12.005 27.5919 12.8002 27.5919V27.5889Z" fill="#FF6633"/>
<path d="M54.7632 38.6319H50.7302C49.2449 38.6305 47.7783 38.9634 46.4392 39.6059C45.1304 38.0506 43.4974 36.8003 41.6546 35.9425C39.8118 35.0847 37.8038 34.6401 35.7712 34.6399H29.7252C27.6961 34.6402 25.6916 35.0834 23.8515 35.9383C22.0114 36.7932 20.38 38.0394 19.0712 39.5899C17.7366 38.9575 16.278 38.6303 14.8012 38.6319H10.7692C8.12247 38.6348 5.585 39.6873 3.71332 41.5586C1.84165 43.4299 0.788597 45.9672 0.785156 48.6139L2.78516 50.6139H62.7482L64.7482 48.6139C64.745 45.9669 63.6919 43.4293 61.8199 41.558C59.948 39.6866 57.4101 38.6342 54.7632 38.6319ZM10.7692 42.6319H14.8012C15.5256 42.6354 16.2433 42.771 16.9192 43.0319C16.4227 44.1746 16.0826 45.3792 15.9082 46.6129H5.12916C5.54418 45.4488 6.30886 44.4415 7.31849 43.7289C8.32812 43.0162 9.53335 42.6331 10.7692 42.6319ZM19.9492 46.6149C20.4134 44.3642 21.639 42.3424 23.4197 40.8898C25.2003 39.4372 27.4272 38.6426 29.7252 38.6399H35.7712C38.0692 38.6423 40.2961 39.4367 42.077 40.8891C43.8578 42.3415 45.0837 44.3633 45.5482 46.6139L19.9492 46.6149ZM49.5882 46.6149C49.4148 45.3847 49.0764 44.1836 48.5822 43.0439C49.2665 42.775 49.9948 42.6353 50.7302 42.6319H54.7632C55.9991 42.6331 57.2044 43.0166 58.2139 43.7296C59.2234 44.4427 59.9878 45.4504 60.4022 46.6149H49.5882Z" fill="#FF6633"/>
<path d="M52.7622 37.5889C54.1466 37.5889 55.5 37.1783 56.6511 36.4091C57.8023 35.64 58.6995 34.5467 59.2293 33.2676C59.7591 31.9886 59.8978 30.5811 59.6277 29.2232C59.3576 27.8654 58.6909 26.6181 57.7119 25.6391C56.7329 24.6601 55.4857 23.9935 54.1278 23.7234C52.7699 23.4533 51.3625 23.5919 50.0834 24.1217C48.8043 24.6515 47.711 25.5487 46.9419 26.6999C46.1727 27.851 45.7622 29.2044 45.7622 30.5889C45.764 32.4448 46.5021 34.2242 47.8145 35.5366C49.1268 36.8489 50.9062 37.587 52.7622 37.5889ZM52.7622 27.5889C53.3555 27.5889 53.9355 27.7648 54.4289 28.0944C54.9222 28.4241 55.3067 28.8926 55.5338 29.4408C55.7609 29.989 55.8203 30.5922 55.7045 31.1741C55.5888 31.7561 55.303 32.2906 54.8835 32.7102C54.4639 33.1297 53.9294 33.4155 53.3474 33.5312C52.7655 33.647 52.1623 33.5876 51.6141 33.3605C51.0659 33.1334 50.5974 32.7489 50.2677 32.2556C49.9381 31.7622 49.7622 31.1822 49.7622 30.5889C49.763 29.7937 50.0794 29.0314 50.6419 28.4695C51.2044 27.9075 51.967 27.5919 52.7622 27.5919V27.5889Z" fill="#FF6633"/>
</g>
<defs>
<clipPath id="clip0_26672_4306">
<rect width="64" height="64" fill="white" transform="translate(0.748047 0.531738)"/>
</clipPath>
</defs>
</svg>
