<?xml version="1.0" encoding="UTF-8"?><svg xmlns="http://www.w3.org/2000/svg" viewBox="0 0 16 108"><defs><style>.cls-1{fill:#fff;}.cls-2{mix-blend-mode:multiply;}.cls-3{isolation:isolate;}</style></defs><g class="cls-3"><g id="Layer_1"><g class="cls-2"><rect class="cls-1" x="6" y="106" width="2" height="2"/><rect class="cls-1" x="6" y="98" width="2" height="2"/><rect class="cls-1" x="2" y="94" width="2" height="2"/><rect class="cls-1" x="6" y="90" width="2" height="2"/><rect class="cls-1" x="2" y="90" width="2" height="2"/><rect class="cls-1" x="2" y="86" width="2" height="2"/><rect class="cls-1" x="6" y="82" width="2" height="2"/><rect class="cls-1" x="2" y="82" width="2" height="2"/><rect class="cls-1" x="6" y="78" width="2" height="2"/><rect class="cls-1" x="2" y="78" width="2" height="2"/><rect class="cls-1" x="4" y="76" width="2" height="2"/><rect class="cls-1" x="6" y="74" width="2" height="2"/><rect class="cls-1" x="2" y="74" width="2" height="2"/><rect class="cls-1" x="6" y="70" width="2" height="2"/><rect class="cls-1" x="2" y="70" width="2" height="2"/><rect class="cls-1" x="4" y="68" width="2" height="2"/><rect class="cls-1" x="6" y="66" width="2" height="2"/><rect class="cls-1" x="2" y="66" width="2" height="2"/><rect class="cls-1" x="0" y="64" width="2" height="2"/><rect class="cls-1" x="6" y="62" width="2" height="2"/><rect class="cls-1" x="2" y="62" width="2" height="2"/><rect class="cls-1" x="4" y="60" width="2" height="2"/><rect class="cls-1" x="0" y="60" width="2" height="2"/><rect class="cls-1" x="0" y="44" width="2" height="2"/><path class="cls-1" d="M4,50h2v2h-2v2h2v2h2v-2h2v-2h-2v-2h2v2h2v-2h2v2h-2v2h2v2h2v-2s0-2,0-2V0H0V14H2v2H0v6H2v2H0v6H2v2H0v6H2v2H0v2H2v2h2v-2h2v2h-2v2h2v2h-2v-2H2v2H0v2H2v2h2v-2Zm10-10h-2v-2h2v2Zm-10-6h2v2h-2v-2Zm0-8h2v2h-2v-2Zm4-2v-2h2v2h-2Zm0-10h2v2h-2v-2Zm0,16h2v2h-2v-2Zm0,8h2v2h-2v-2Zm6-2h-2v-2h2v2Zm0-4h-2v-2h2v2Zm0-4h-2v-2h2v2Zm-10,2h2v2h-2v-2Zm0,10v-2h2v2h-2Zm4,6h2v-2h-2v-2h2v2h2v-2h2v2h-2v2h2v2h-2v-2h-2v2h-2v-2Z"/><rect class="cls-1" x="0" y="52" width="2" height="2"/><polygon class="cls-1" points="4 58 6 58 6 56 4 56 4 54 2 54 2 56 0 56 0 58 2 58 2 60 4 60 4 58"/><rect class="cls-1" x="6" y="58" width="2" height="2"/><rect class="cls-1" x="14" y="106" width="2" height="2"/><rect class="cls-1" x="14" y="98" width="2" height="2"/><rect class="cls-1" x="10" y="94" width="2" height="2"/><rect class="cls-1" x="14" y="90" width="2" height="2"/><rect class="cls-1" x="10" y="90" width="2" height="2"/><rect class="cls-1" x="10" y="86" width="2" height="2"/><rect class="cls-1" x="14" y="82" width="2" height="2"/><rect class="cls-1" x="10" y="82" width="2" height="2"/><rect class="cls-1" x="14" y="78" width="2" height="2"/><rect class="cls-1" x="10" y="78" width="2" height="2"/><rect class="cls-1" x="12" y="76" width="2" height="2"/><rect class="cls-1" x="14" y="74" width="2" height="2"/><rect class="cls-1" x="10" y="74" width="2" height="2"/><rect class="cls-1" x="14" y="70" width="2" height="2"/><rect class="cls-1" x="10" y="70" width="2" height="2"/><rect class="cls-1" x="12" y="68" width="2" height="2"/><rect class="cls-1" x="14" y="66" width="2" height="2"/><rect class="cls-1" x="10" y="66" width="2" height="2"/><rect class="cls-1" x="8" y="64" width="2" height="2"/><rect class="cls-1" x="14" y="62" width="2" height="2"/><rect class="cls-1" x="10" y="62" width="2" height="2"/><rect class="cls-1" x="12" y="60" width="2" height="2"/><rect class="cls-1" x="8" y="60" width="2" height="2"/><polygon class="cls-1" points="12 54 10 54 10 56 8 56 8 58 10 58 10 60 12 60 12 58 14 58 14 56 12 56 12 54"/><rect class="cls-1" x="14" y="58" width="2" height="2"/></g></g></g></svg>