<svg width="65" height="64" viewBox="0 0 65 64" fill="none" xmlns="http://www.w3.org/2000/svg">
<path d="M32.7481 6C27.6057 6 22.5789 7.52487 18.3032 10.3818C14.0276 13.2387 10.6951 17.2994 8.72719 22.0502C6.75931 26.8011 6.24443 32.0288 7.24764 37.0723C8.25086 42.1159 10.7271 46.7486 14.3633 50.3848C17.9994 54.0209 22.6322 56.4972 27.6757 57.5004C32.7192 58.5036 37.9469 57.9887 42.6978 56.0209C47.4487 54.053 51.5093 50.7205 54.3663 46.4448C57.2232 42.1691 58.7481 37.1423 58.7481 32C58.7481 25.1044 56.0088 18.4912 51.1328 13.6152C46.2569 8.73928 39.6437 6 32.7481 6ZM32.7481 54C28.3969 54 24.1434 52.7097 20.5255 50.2923C16.9076 47.8749 14.0878 44.439 12.4227 40.419C10.7576 36.3991 10.3219 31.9756 11.1708 27.708C12.0197 23.4404 14.115 19.5204 17.1917 16.4437C20.2685 13.3669 24.1885 11.2716 28.4561 10.4227C32.7237 9.57385 37.1471 10.0095 41.1671 11.6747C45.1871 13.3398 48.623 16.1596 51.0404 19.7775C53.4578 23.3953 54.7481 27.6488 54.7481 32C54.7481 37.8348 52.4302 43.4305 48.3044 47.5564C44.1786 51.6822 38.5828 54 32.7481 54Z" fill="#FF6633"/>
<path d="M28.6581 38.11L20.7581 29.86L17.8681 32.63L28.6081 43.85L47.5981 24.65L44.7581 21.84L28.6581 38.11Z" fill="#FF6633"/>
</svg>
